<svg version="1.1" id="Layer_1" xmlns="http://www.w3.org/2000/svg" xmlns:xlink="http://www.w3.org/1999/xlink" x="0px" y="0px"
	 width="100%" viewBox="0 0 593 325" enable-background="new 0 0 593 325" xml:space="preserve">
<path fill="#000001" opacity="1.000000" stroke="none" 
	d="
M454.000000,326.000000 
	C302.666656,326.000000 151.833328,326.000000 1.000000,326.000000 
	C1.000000,217.666672 1.000000,109.333336 1.000000,1.000000 
	C198.666672,1.000000 396.333344,1.000000 594.000000,1.000000 
	C594.000000,109.333336 594.000000,217.666672 594.000000,326.000000 
	C547.500000,326.000000 501.000000,326.000000 454.000000,326.000000 
M566.231384,107.978165 
	C563.188721,106.968201 560.145996,105.958244 556.548340,104.487091 
	C549.063599,101.699379 541.679810,98.591026 534.072021,96.193924 
	C520.260559,91.842148 506.342010,87.821526 492.417542,83.839699 
	C482.607697,81.034492 472.728119,78.467621 462.845459,75.927437 
	C461.010376,75.455757 458.910400,75.962456 457.106781,75.428993 
	C447.991638,72.732880 438.934021,69.842201 429.617096,66.336128 
	C417.473236,62.112804 405.279694,58.024353 393.217834,53.578579 
	C389.883270,52.349522 387.960388,52.538734 387.056946,56.098465 
	C389.659576,60.572922 393.522919,62.874947 398.475494,64.115952 
	C407.422821,66.357956 416.247162,69.090714 425.820801,71.954437 
	C428.990906,72.867943 432.162018,73.777847 435.330933,74.695503 
	C476.629639,86.654846 517.928040,98.615265 559.898254,110.908699 
	C561.613770,111.269318 563.329285,111.629936 565.610657,112.440933 
	C568.745483,113.274513 571.880249,114.108101 575.561157,115.359772 
	C579.802612,118.528305 581.987732,122.695145 581.985291,128.053879 
	C581.971069,159.313187 581.955261,190.572647 582.052246,221.831680 
	C582.067932,226.870361 580.085815,229.708984 575.127197,231.147339 
	C565.981323,233.800247 556.972351,236.925095 547.122437,239.879700 
	C545.857910,240.254303 544.588196,240.612045 543.329712,241.005981 
	C513.823120,250.242599 484.317810,259.483093 454.116302,268.813141 
	C452.542267,268.886292 450.882843,268.660858 449.408478,269.082520 
	C441.597229,271.316650 433.822754,273.681549 426.053894,276.061096 
	C413.648834,279.860687 401.242889,283.658691 388.865692,287.547729 
	C375.976868,291.597534 363.149628,295.844666 350.243042,299.836060 
	C339.875549,303.042206 329.429779,305.995300 318.234070,309.008575 
	C312.420074,310.668701 306.613312,313.619781 300.790192,313.652435 
	C293.965668,313.690704 287.110596,311.263947 280.298370,309.771332 
	C271.213165,307.780762 262.156464,305.660065 252.652283,303.111603 
	C247.824188,301.403778 243.039856,299.557648 238.160126,298.012848 
	C220.257660,292.345459 202.354324,286.676941 184.391632,281.204773 
	C169.646393,276.712738 154.816406,272.498871 139.318497,267.961212 
	C130.240173,265.296448 121.152557,262.662811 112.086662,259.956451 
	C105.545349,258.003754 99.042984,255.920822 92.504631,253.957977 
	C86.704391,252.216736 80.878502,250.560959 75.031151,248.947296 
	C75.031151,248.947296 75.114159,248.970901 75.031059,248.544235 
	C74.666801,248.374344 74.302536,248.204453 73.367126,247.864960 
	C62.045719,244.229721 50.724125,240.595062 39.402988,236.958984 
	C34.466644,235.373566 29.480692,233.924469 24.610426,232.156799 
	C20.217220,230.562271 15.249551,229.531616 13.971817,223.022430 
	C13.933998,189.368103 13.896180,155.713791 14.161981,121.419815 
	C16.355629,119.591232 18.298819,117.225655 20.801016,116.058617 
	C24.655048,114.261078 28.887167,113.269058 32.968102,111.964111 
	C44.323662,108.332962 55.683971,104.716660 67.860725,101.057037 
	C68.845612,100.959442 69.878418,101.020935 70.808350,100.740868 
	C91.537895,94.498001 112.256104,88.217491 133.735458,81.926086 
	C153.896057,76.039322 174.099701,70.293701 194.187897,64.169464 
	C199.401581,62.579983 204.254303,59.806530 209.262115,57.581657 
	C207.919006,53.002754 206.141083,52.565639 202.909943,53.583454 
	C178.908463,61.143944 154.844177,68.505066 130.027283,75.987534 
	C119.962959,78.955894 109.898674,81.924370 99.834297,84.892578 
	C88.232185,88.314285 76.629997,91.735764 64.317558,95.233543 
	C61.882191,96.073006 59.480686,97.032204 57.005852,97.732094 
	C43.108345,101.662323 29.145365,105.371094 15.316987,109.528801 
	C11.776470,110.593307 7.213907,111.348656 6.325256,117.326057 
	C6.207754,118.308388 5.988005,119.290680 5.987529,120.273064 
	C5.970500,155.451309 5.962739,190.629578 6.015883,225.807755 
	C6.017993,227.204681 6.626587,228.600693 6.979413,230.729919 
	C9.572469,232.792404 11.857480,235.796738 14.809335,236.762192 
	C32.015411,242.389633 49.357937,247.605560 66.703758,252.795425 
	C70.355370,253.887970 74.213051,254.291809 78.655930,255.265656 
	C79.922432,255.934296 81.121979,256.815887 82.465858,257.238434 
	C95.032684,261.189514 107.598572,265.147736 120.218620,268.923828 
	C127.429634,271.081421 134.740494,272.905304 142.742371,275.043945 
	C146.287003,276.265106 149.796188,277.603271 153.381790,278.689178 
	C186.554565,288.735748 219.740555,298.738739 253.694168,308.996979 
	C263.381744,312.241852 273.026855,315.621185 282.767395,318.698395 
	C295.644440,322.766510 308.139313,321.802155 320.847839,315.087250 
	C366.239105,301.394897 411.632172,287.708435 457.007080,273.962189 
	C457.803192,273.720947 458.381561,272.760986 459.902191,272.034027 
	C462.775574,271.494934 465.729218,271.219879 468.509735,270.375153 
	C491.640106,263.347778 514.747681,256.244659 537.838684,249.088715 
	C542.233032,247.726852 546.523743,246.030197 551.548401,244.912842 
	C561.170105,241.995438 570.813721,239.147903 580.406006,236.136780 
	C587.102173,234.034790 588.884888,231.519043 588.894470,224.606232 
	C588.941101,191.022232 588.964905,157.438187 588.995972,123.854164 
	C588.999207,120.378075 588.996399,116.901985 588.996399,113.141510 
	C582.851746,111.740799 576.937073,110.392525 570.418274,108.652046 
	C569.272461,108.472908 568.126648,108.293770 566.231384,107.978165 
M275.907867,98.971420 
	C281.357697,98.971420 286.807526,98.971420 292.368195,98.971420 
	C291.163971,84.637207 286.659821,72.464020 274.789612,63.179104 
	C273.411682,62.030312 272.167572,60.214363 270.621460,59.904293 
	C268.755371,59.530048 265.530060,59.750957 264.817291,60.903858 
	C262.082123,65.328087 260.117371,70.228600 257.216309,75.165787 
	C252.459488,82.844528 247.702667,90.523270 242.158768,99.472565 
	C250.785690,98.953415 257.916901,98.524277 265.868988,98.084206 
	C268.606659,98.341263 271.344330,98.598328 274.531921,98.950058 
	C274.531921,98.950058 274.978394,98.835342 275.907867,98.971420 
M284.226196,28.124079 
	C280.095917,34.762230 275.965607,41.400383 271.532898,48.524574 
	C278.080566,49.683819 283.580109,50.657501 289.875885,51.919304 
	C294.248932,51.963947 298.621979,52.008591 303.846832,52.049034 
	C310.351562,50.812988 316.856323,49.576942 323.842346,48.249435 
	C319.072998,40.174965 314.872589,32.909855 310.513794,25.741047 
	C307.828735,21.325006 304.902008,17.055931 302.194275,12.015959 
	C300.773315,9.664947 299.352325,7.313934 297.313629,3.940895 
	C292.844574,12.568674 288.863098,20.255072 284.226196,28.124079 
M324.975861,98.151955 
	C334.188995,98.710098 343.402161,99.268250 353.576477,99.884621 
	C344.556641,84.461456 336.321564,70.380096 327.783417,55.780548 
	C323.899536,60.114159 320.416382,64.000656 316.263092,68.046165 
	C307.352814,76.332367 303.976135,86.738174 303.981140,99.382492 
	C311.072144,98.965294 317.576935,98.582581 324.975861,98.151955 
M401.051117,177.032104 
	C392.799347,177.032104 384.547577,177.032104 376.236023,177.032104 
	C376.236023,188.062912 376.236023,198.312103 376.236023,209.086746 
	C386.531830,208.148621 396.580383,207.438309 406.563385,206.199646 
	C409.598969,205.822968 413.100739,204.684555 415.257843,202.678619 
	C419.885193,198.375656 420.358765,192.870377 418.482178,186.702072 
	C417.335571,182.933182 417.043884,178.563309 417.658997,174.667130 
	C419.146332,165.246124 414.262939,156.388611 404.969116,155.458344 
	C395.496185,154.510178 385.854401,155.248657 376.365265,155.248657 
	C374.977173,163.069473 376.355560,164.468262 383.787872,164.190292 
	C389.761627,163.966873 395.767029,163.992889 401.731781,164.351181 
	C405.328094,164.567215 407.985535,166.475662 407.996613,170.663620 
	C408.007385,174.733917 405.910248,176.747818 401.051117,177.032104 
M309.849457,198.541840 
	C308.264862,198.080917 306.508667,197.904221 305.143341,197.080048 
	C303.746368,196.236771 302.732422,194.758942 301.550842,193.558884 
	C302.551697,192.627625 303.464203,191.570328 304.573029,190.793213 
	C306.461487,189.469788 308.579987,188.463303 310.413635,187.075058 
	C316.159943,182.724564 318.085602,176.719925 316.774170,169.881744 
	C315.554810,163.523819 312.162201,157.612427 305.619385,156.595840 
	C295.611298,155.040848 285.343964,155.154541 275.185425,154.559799 
	C275.185425,173.121948 275.185425,190.364700 275.185425,207.643951 
	C278.143372,207.643951 280.870239,207.643951 283.513458,207.643951 
	C284.257080,201.826767 284.957367,196.348495 285.657654,190.870239 
	C286.156982,190.866592 286.656281,190.862946 287.155609,190.859299 
	C289.238281,193.775757 291.199860,196.788712 293.430481,199.587265 
	C297.274567,204.410080 301.914429,208.028519 308.478882,207.978943 
	C310.803955,207.961395 313.633270,208.867401 314.420593,205.182892 
	C315.157776,201.733124 313.738251,199.816589 309.849457,198.541840 
M182.019470,165.608582 
	C183.464127,162.217178 184.908768,158.825775 186.435608,155.241425 
	C176.916855,154.757324 176.316666,155.145126 172.795074,163.134689 
	C168.038025,173.927246 163.246353,184.704559 158.120651,196.276047 
	C157.157104,194.270081 156.499329,193.015121 155.939850,191.717773 
	C151.562912,181.568268 147.268799,171.382477 142.818329,161.265442 
	C139.886765,154.601273 136.119019,153.364365 130.411545,157.221527 
	C137.078003,172.582596 143.539444,188.113403 150.691315,203.319473 
	C151.884949,205.857330 155.901779,207.953278 158.933792,208.509003 
	C162.466156,209.156448 164.590149,205.998367 166.009399,202.685883 
	C171.212204,190.542770 176.571091,178.466553 182.019470,165.608582 
M217.449173,192.122253 
	C218.995377,195.772324 220.394409,199.493774 222.122330,203.055710 
	C224.694427,208.357803 228.482819,209.372421 234.075546,206.398315 
	C233.054749,203.988770 232.047104,201.554779 230.996460,199.139511 
	C225.394455,186.261658 219.989899,173.289978 213.987823,160.601089 
	C212.858261,158.213089 209.440063,155.774078 206.877960,155.539078 
	C204.638794,155.333694 200.922913,157.637970 199.913452,159.794846 
	C192.702240,175.202637 186.017258,190.856705 179.170837,206.419113 
	C185.728348,209.592316 189.087006,208.313980 191.982468,201.694656 
	C196.768173,190.753967 201.495728,179.787857 206.727676,167.726151 
	C210.500168,176.365921 213.792572,183.906204 217.449173,192.122253 
M364.014709,183.803482 
	C364.713562,173.612854 360.147522,166.910538 350.226013,163.563583 
	C337.993347,159.436966 323.456421,170.941727 325.244354,183.334518 
	C326.547333,192.366150 334.945801,199.947372 343.995636,200.261215 
	C353.891296,200.604370 361.892426,194.340286 364.014709,183.803482 
M433.098663,169.670090 
	C427.205200,177.963211 427.269196,186.658340 433.396301,193.792801 
	C439.332764,200.705231 448.957520,201.150726 457.719543,197.501419 
	C464.149750,194.823273 468.628510,184.351044 466.981720,177.039566 
	C465.414001,170.079315 460.637543,165.939056 454.051208,163.901855 
	C446.239655,161.485687 439.337341,163.190826 433.098663,169.670090 
M515.009155,160.277710 
	C515.057312,157.558441 515.385193,154.992035 511.142700,155.063293 
	C499.368256,155.261078 487.586182,155.029755 475.813690,155.279251 
	C474.538757,155.306274 472.522156,157.186813 472.211761,158.523834 
	C471.470673,161.716324 472.866974,164.089233 476.600006,164.093796 
	C488.019592,164.107712 499.441376,164.168045 510.856140,163.923508 
	C512.244324,163.893768 513.594910,162.114365 515.009155,160.277710 
M123.874733,205.296097 
	C124.339920,201.996567 123.897957,198.911667 119.828491,198.838654 
	C109.734474,198.657562 99.633217,198.762756 89.536880,198.900253 
	C86.555618,198.940842 84.962692,200.782150 85.346870,203.798248 
	C85.688736,206.482117 86.801453,208.064468 90.168129,207.969467 
	C99.941353,207.693726 109.728416,207.940475 119.507195,207.793243 
	C120.882523,207.772537 122.241943,206.695282 123.874733,205.296097 
M85.606239,157.438248 
	C86.492393,160.116455 85.202728,164.105576 90.348587,164.015976 
	C99.991356,163.848145 109.640099,164.027878 119.286377,164.054962 
	C122.558632,164.064148 124.063362,162.533569 124.041756,159.146545 
	C124.020363,155.791733 122.141762,155.524231 119.488922,155.547852 
	C109.342728,155.638168 99.194954,155.549301 89.048615,155.631409 
	C87.863182,155.640991 86.682983,156.297318 85.606239,157.438248 
M493.472168,171.135162 
	C492.047272,171.221542 490.622375,171.307907 489.272125,171.389755 
	C489.272125,183.724350 489.272125,195.639465 489.272125,207.506454 
	C492.294464,207.506454 495.012634,207.506454 497.996033,207.506454 
	C497.996033,196.176605 497.905548,185.201645 498.056152,174.229980 
	C498.096558,171.286392 496.683990,170.899323 493.472168,171.135162 
M85.945679,179.386581 
	C85.476997,182.552109 84.031303,186.599030 89.182022,186.782227 
	C98.938339,187.129272 108.715767,186.882629 118.394707,186.882629 
	C120.554192,178.858917 119.060379,176.917862 111.289833,177.000305 
	C105.156670,177.065384 99.016853,176.860825 92.891159,177.083389 
	C90.706718,177.162735 88.555077,178.145126 85.945679,179.386581 
z"/>
<path fill="#5912AA" opacity="1.000000" stroke="none" 
	d="
M6.895643,116.634468 
	C7.213907,111.348656 11.776470,110.593307 15.316987,109.528801 
	C29.145365,105.371094 43.108345,101.662323 57.005852,97.732094 
	C59.480686,97.032204 61.882191,96.073006 64.711411,95.509338 
	C65.750984,97.554916 66.396690,99.324699 67.042404,101.094482 
	C55.683971,104.716660 44.323662,108.332962 32.968102,111.964111 
	C28.887167,113.269058 24.655048,114.261078 20.801016,116.058617 
	C18.298819,117.225655 16.355629,119.591232 13.757752,122.061050 
	C13.233143,123.514946 13.007944,124.327538 13.007498,125.140259 
	C12.990116,156.820023 12.983521,188.499802 13.029488,220.179520 
	C13.031309,221.434814 13.559107,222.689346 13.841831,223.944244 
	C15.249551,229.531616 20.217220,230.562271 24.610426,232.156799 
	C29.480692,233.924469 34.466644,235.373566 39.402988,236.958984 
	C50.724125,240.595062 62.045719,244.229721 73.801346,248.160492 
	C74.528419,248.627670 74.821289,248.799286 75.114159,248.970901 
	C75.114159,248.970901 75.031151,248.947296 75.047623,249.262634 
	C76.034653,251.389664 77.005211,253.201340 77.975769,255.013016 
	C74.213051,254.291809 70.355370,253.887970 66.703758,252.795425 
	C49.357937,247.605560 32.015411,242.389633 14.809335,236.762192 
	C11.857480,235.796738 9.572469,232.792404 6.979406,229.896973 
	C6.951480,191.587509 6.923562,154.110992 6.895643,116.634468 
z"/>
<path fill="#E2E2E2" opacity="1.000000" stroke="none" 
	d="
M401.501068,177.022781 
	C405.910248,176.747818 408.007385,174.733917 407.996613,170.663620 
	C407.985535,166.475662 405.328094,164.567215 401.731781,164.351181 
	C395.767029,163.992889 389.761627,163.966873 383.787872,164.190292 
	C376.355560,164.468262 374.977173,163.069473 376.365265,155.248657 
	C385.854401,155.248657 395.496185,154.510178 404.969116,155.458344 
	C414.262939,156.388611 419.146332,165.246124 417.658997,174.667130 
	C417.043884,178.563309 417.335571,182.933182 418.482178,186.702072 
	C420.358765,192.870377 419.885193,198.375656 415.257843,202.678619 
	C413.100739,204.684555 409.598969,205.822968 406.563385,206.199646 
	C396.580383,207.438309 386.531830,208.148621 376.236023,209.086746 
	C376.236023,198.312103 376.236023,188.062912 376.236023,177.032104 
	C384.547577,177.032104 392.799347,177.032104 401.501068,177.022781 
M409.126068,193.751556 
	C409.067535,189.204559 406.119965,187.160080 402.211945,186.875214 
	C396.952728,186.491882 391.644531,186.780151 385.885834,186.780151 
	C385.527405,191.024384 385.216583,194.704727 384.868774,198.823517 
	C390.312347,198.823517 395.098145,198.775894 399.882538,198.838730 
	C403.645874,198.888138 406.690125,197.663269 409.126068,193.751556 
z"/>
<path fill="#E2E2E2" opacity="1.000000" stroke="none" 
	d="
M310.206238,198.703064 
	C313.738251,199.816589 315.157776,201.733124 314.420593,205.182892 
	C313.633270,208.867401 310.803955,207.961395 308.478882,207.978943 
	C301.914429,208.028519 297.274567,204.410080 293.430481,199.587265 
	C291.199860,196.788712 289.238281,193.775757 287.155609,190.859299 
	C286.656281,190.862946 286.156982,190.866592 285.657654,190.870239 
	C284.957367,196.348495 284.257080,201.826767 283.513458,207.643951 
	C280.870239,207.643951 278.143372,207.643951 275.185425,207.643951 
	C275.185425,190.364700 275.185425,173.121948 275.185425,154.559799 
	C285.343964,155.154541 295.611298,155.040848 305.619385,156.595840 
	C312.162201,157.612427 315.554810,163.523819 316.774170,169.881744 
	C318.085602,176.719925 316.159943,182.724564 310.413635,187.075058 
	C308.579987,188.463303 306.461487,189.469788 304.573029,190.793213 
	C303.464203,191.570328 302.551697,192.627625 301.550842,193.558868 
	C302.732422,194.758942 303.746368,196.236771 305.143341,197.080048 
	C306.508667,197.904221 308.264862,198.080917 310.206238,198.703064 
M298.907928,182.192825 
	C305.910736,179.823135 308.613342,176.946487 307.817108,172.709961 
	C306.771118,167.144608 302.321564,163.832169 295.736664,163.886429 
	C292.285126,163.914856 288.835449,164.174164 285.221436,164.336563 
	C285.221436,170.577591 285.221436,176.422760 285.221436,182.371078 
	C289.735352,182.371078 293.884949,182.371078 298.907928,182.192825 
z"/>
<path fill="#77C8F1" opacity="1.000000" stroke="none" 
	d="
M547.906372,239.853287 
	C556.972351,236.925095 565.981323,233.800247 575.127197,231.147339 
	C580.085815,229.708984 582.067932,226.870361 582.052246,221.831680 
	C581.955261,190.572647 581.971069,159.313187 581.985291,128.053879 
	C581.987732,122.695145 579.802612,118.528305 575.235107,114.822495 
	C573.613586,112.538216 572.318054,110.791229 571.022461,109.044250 
	C576.937073,110.392525 582.851746,111.740799 588.996399,113.141510 
	C588.996399,116.901985 588.999207,120.378075 588.995972,123.854164 
	C588.964905,157.438187 588.941101,191.022232 588.894470,224.606232 
	C588.884888,231.519043 587.102173,234.034790 580.406006,236.136780 
	C570.813721,239.147903 561.170105,241.995438 551.052612,244.439255 
	C549.673340,242.594864 548.789856,241.224075 547.906372,239.853287 
z"/>
<path fill="#DEDEDE" opacity="1.000000" stroke="none" 
	d="
M181.945343,165.986862 
	C176.571091,178.466553 171.212204,190.542770 166.009399,202.685883 
	C164.590149,205.998367 162.466156,209.156448 158.933792,208.509003 
	C155.901779,207.953278 151.884949,205.857330 150.691315,203.319473 
	C143.539444,188.113403 137.078003,172.582596 130.411545,157.221527 
	C136.119019,153.364365 139.886765,154.601273 142.818329,161.265442 
	C147.268799,171.382477 151.562912,181.568268 155.939850,191.717773 
	C156.499329,193.015121 157.157104,194.270081 158.120651,196.276047 
	C163.246353,184.704559 168.038025,173.927246 172.795074,163.134689 
	C176.316666,155.145126 176.916855,154.757324 186.435608,155.241425 
	C184.908768,158.825775 183.464127,162.217178 181.945343,165.986862 
z"/>
<path fill="#DEDEDE" opacity="1.000000" stroke="none" 
	d="
M217.267059,191.784363 
	C213.792572,183.906204 210.500168,176.365921 206.727676,167.726151 
	C201.495728,179.787857 196.768173,190.753967 191.982468,201.694656 
	C189.087006,208.313980 185.728348,209.592316 179.170837,206.419113 
	C186.017258,190.856705 192.702240,175.202637 199.913452,159.794846 
	C200.922913,157.637970 204.638794,155.333694 206.877960,155.539078 
	C209.440063,155.774078 212.858261,158.213089 213.987823,160.601089 
	C219.989899,173.289978 225.394455,186.261658 230.996460,199.139511 
	C232.047104,201.554779 233.054749,203.988770 234.075546,206.398315 
	C228.482819,209.372421 224.694427,208.357803 222.122330,203.055710 
	C220.394409,199.493774 218.995377,195.772324 217.267059,191.784363 
z"/>
<path fill="#6C86D1" opacity="1.000000" stroke="none" 
	d="
M319.018738,309.060699 
	C329.429779,305.995300 339.875549,303.042206 350.243042,299.836060 
	C363.149628,295.844666 375.976868,291.597534 388.865692,287.547729 
	C401.242889,283.658691 413.648834,279.860687 426.053894,276.061096 
	C433.822754,273.681549 441.597229,271.316650 449.408478,269.082520 
	C450.882843,268.660858 452.542267,268.886292 454.629578,269.085999 
	C456.449066,270.284729 457.755310,271.210571 459.061554,272.136414 
	C458.381561,272.760986 457.803192,273.720947 457.007080,273.962189 
	C411.632172,287.708435 366.239105,301.394897 320.422577,314.734680 
	C319.671112,312.608276 319.344940,310.834503 319.018738,309.060699 
z"/>
<path fill="#6EA4D8" opacity="1.000000" stroke="none" 
	d="
M429.856232,67.019760 
	C438.934021,69.842201 447.991638,72.732880 457.106781,75.428993 
	C458.910400,75.962456 461.010376,75.455757 462.845459,75.927437 
	C472.728119,78.467621 482.607697,81.034492 492.417542,83.839699 
	C506.342010,87.821526 520.260559,91.842148 534.072021,96.193924 
	C541.679810,98.591026 549.063599,101.699379 556.801147,105.033066 
	C557.778137,107.244499 558.502319,108.909966 559.226501,110.575424 
	C517.928040,98.615265 476.629639,86.654846 435.330933,74.695503 
	C432.162018,73.777847 428.990906,72.867943 425.684784,71.626724 
	C426.984589,69.872597 428.420410,68.446175 429.856232,67.019760 
z"/>
<path fill="#DFDFDF" opacity="1.000000" stroke="none" 
	d="
M364.009918,184.199631 
	C361.892426,194.340286 353.891296,200.604370 343.995636,200.261215 
	C334.945801,199.947372 326.547333,192.366150 325.244354,183.334518 
	C323.456421,170.941727 337.993347,159.436966 350.226013,163.563583 
	C360.147522,166.910538 364.713562,173.612854 364.009918,184.199631 
M339.931671,175.255234 
	C338.863159,176.025070 337.115784,176.616028 336.856689,177.599182 
	C336.153015,180.269211 334.837067,184.028931 336.048370,185.659042 
	C337.859680,188.096527 342.647766,191.125000 344.351959,190.271729 
	C348.231476,188.329330 351.083740,184.248856 354.135071,180.841690 
	C354.544067,180.385040 353.914124,178.664719 353.381805,177.753632 
	C350.466522,172.764084 348.011261,172.264664 339.931671,175.255234 
z"/>
<path fill="#6AA5DD" opacity="1.000000" stroke="none" 
	d="
M316.933228,67.887146 
	C320.416382,64.000656 323.899536,60.114159 327.783417,55.780548 
	C336.321564,70.380096 344.556641,84.461456 353.576477,99.884621 
	C343.402161,99.268250 334.188995,98.710098 324.328613,97.880585 
	C319.947876,95.428123 319.053650,92.092491 318.885406,87.921371 
	C318.615448,81.227936 317.621338,74.563713 316.933228,67.887146 
z"/>
<path fill="#DFDFDF" opacity="1.000000" stroke="none" 
	d="
M433.343689,169.400055 
	C439.337341,163.190826 446.239655,161.485687 454.051208,163.901855 
	C460.637543,165.939056 465.414001,170.079315 466.981720,177.039566 
	C468.628510,184.351044 464.149750,194.823273 457.719543,197.501419 
	C448.957520,201.150726 439.332764,200.705231 433.396301,193.792801 
	C427.269196,186.658340 427.205200,177.963211 433.343689,169.400055 
M454.420776,174.948166 
	C453.138275,174.213837 451.929321,173.276489 450.560425,172.780670 
	C444.941162,170.745422 440.543579,172.900482 438.801819,178.404434 
	C436.895355,184.428848 439.201538,188.232391 445.125366,190.202255 
	C451.010498,192.159256 452.478851,187.243713 455.238800,184.367310 
	C458.067596,181.419189 458.404694,178.301331 454.420776,174.948166 
z"/>
<path fill="#6546BC" opacity="1.000000" stroke="none" 
	d="
M252.922699,308.754395 
	C219.740555,298.738739 186.554565,288.735748 153.381790,278.689178 
	C149.796188,277.603271 146.287003,276.265106 142.360352,274.600891 
	C141.326889,272.159088 140.675430,270.160400 140.023987,268.161682 
	C154.816406,272.498871 169.646393,276.712738 184.391632,281.204773 
	C202.354324,286.676941 220.257660,292.345459 238.160126,298.012848 
	C243.039856,299.557648 247.824188,301.403778 252.833191,303.785095 
	C252.983643,305.890503 252.953186,307.322449 252.922699,308.754395 
z"/>
<path fill="#6FA5D9" opacity="1.000000" stroke="none" 
	d="
M459.481873,272.085205 
	C457.755310,271.210571 456.449066,270.284729 454.977539,269.040894 
	C484.317810,259.483093 513.823120,250.242599 543.329712,241.005981 
	C544.588196,240.612045 545.857910,240.254303 547.514404,239.866486 
	C548.789856,241.224075 549.673340,242.594864 550.709534,244.226837 
	C546.523743,246.030197 542.233032,247.726852 537.838684,249.088715 
	C514.747681,256.244659 491.640106,263.347778 468.509735,270.375153 
	C465.729218,271.219879 462.775574,271.494934 459.481873,272.085205 
z"/>
<path fill="#6445BD" opacity="1.000000" stroke="none" 
	d="
M130.799622,75.928780 
	C154.844177,68.505066 178.908463,61.143944 202.909943,53.583454 
	C206.141083,52.565639 207.919006,53.002754 209.262115,57.581657 
	C204.254303,59.806530 199.401581,62.579983 194.187897,64.169464 
	C174.099701,70.293701 153.896057,76.039322 133.362427,81.586304 
	C132.259476,79.473938 131.529541,77.701363 130.799622,75.928780 
z"/>
<path fill="#6665C8" opacity="1.000000" stroke="none" 
	d="
M302.995026,52.053238 
	C298.621979,52.008591 294.248932,51.963947 289.730988,51.601734 
	C292.012115,50.729542 291.332153,49.737305 290.647736,47.835518 
	C289.017731,43.306282 288.101776,38.523205 286.821625,33.863487 
	C286.271973,31.862833 285.534027,29.913900 284.881653,27.941469 
	C288.863098,20.255072 292.844574,12.568674 297.313629,3.940895 
	C299.352325,7.313934 300.773315,9.664947 302.108215,12.788815 
	C301.969879,16.140224 301.920959,18.718847 301.864563,21.297310 
	C301.789612,24.724243 301.723175,28.151447 301.627472,31.577822 
	C301.455170,37.745644 301.204956,43.912575 301.166962,50.080990 
	C301.162903,50.734627 302.356842,51.395645 302.995026,52.053238 
z"/>
<path fill="#6341C1" opacity="1.000000" stroke="none" 
	d="
M257.865143,74.951416 
	C260.117371,70.228600 262.082123,65.328087 264.817291,60.903858 
	C265.530060,59.750957 268.755371,59.530048 270.621460,59.904293 
	C272.167572,60.214363 273.411682,62.030312 274.909271,63.957458 
	C275.018188,67.515083 275.007477,70.294357 274.717560,73.371727 
	C274.319580,82.065010 274.200806,90.460205 274.082031,98.855392 
	C271.344330,98.598328 268.606659,98.341263 265.239868,97.804192 
	C261.025482,95.475700 261.295349,92.021461 260.878723,88.530014 
	C260.332092,83.949173 258.910461,79.472740 257.865143,74.951416 
z"/>
<path fill="#6665C5" opacity="1.000000" stroke="none" 
	d="
M253.308441,308.875671 
	C252.953186,307.322449 252.983643,305.890503 253.050827,304.026917 
	C262.156464,305.660065 271.213165,307.780762 280.298370,309.771332 
	C287.110596,311.263947 293.965668,313.690704 300.790192,313.652435 
	C306.613312,313.619781 312.420074,310.668701 318.626404,309.034637 
	C319.344940,310.834503 319.671112,312.608276 320.025269,314.780182 
	C308.139313,321.802155 295.644440,322.766510 282.767395,318.698395 
	C273.026855,315.621185 263.381744,312.241852 253.308441,308.875671 
z"/>
<path fill="#6984D5" opacity="1.000000" stroke="none" 
	d="
M303.420929,52.051140 
	C302.356842,51.395645 301.162903,50.734627 301.166962,50.080990 
	C301.204956,43.912575 301.455170,37.745644 301.627472,31.577822 
	C301.723175,28.151447 301.789612,24.724243 301.864563,21.297310 
	C301.920959,18.718847 301.969879,16.140224 302.052979,13.141272 
	C304.902008,17.055931 307.828735,21.325006 310.513794,25.741047 
	C314.872589,32.909855 319.072998,40.174965 323.842346,48.249435 
	C316.856323,49.576942 310.351562,50.812988 303.420929,52.051140 
z"/>
<path fill="#6230B7" opacity="1.000000" stroke="none" 
	d="
M130.413452,75.958160 
	C131.529541,77.701363 132.259476,79.473938 132.982941,81.595322 
	C112.256104,88.217491 91.537895,94.498001 70.808350,100.740868 
	C69.878418,101.020935 68.845612,100.959442 67.451569,101.075760 
	C66.396690,99.324699 65.750984,97.554916 65.066559,95.471237 
	C76.629997,91.735764 88.232185,88.314285 99.834297,84.892578 
	C109.898674,81.924370 119.962959,78.955894 130.413452,75.958160 
z"/>
<path fill="#6230B7" opacity="1.000000" stroke="none" 
	d="
M139.671234,268.061462 
	C140.675430,270.160400 141.326889,272.159088 141.992371,274.518616 
	C134.740494,272.905304 127.429634,271.081421 120.218620,268.923828 
	C107.598572,265.147736 95.032684,261.189514 82.465858,257.238434 
	C81.121979,256.815887 79.922432,255.934296 78.315849,255.139343 
	C77.005211,253.201340 76.034653,251.389664 75.064011,249.222717 
	C80.878502,250.560959 86.704391,252.216736 92.504631,253.957977 
	C99.042984,255.920822 105.545349,258.003754 112.086662,259.956451 
	C121.152557,262.662811 130.240173,265.296448 139.671234,268.061462 
z"/>
<path fill="#6564C9" opacity="1.000000" stroke="none" 
	d="
M274.996765,73.073631 
	C275.007477,70.294357 275.018188,67.515083 275.045898,64.269791 
	C286.659821,72.464020 291.163971,84.637207 292.368195,98.971420 
	C286.807526,98.971420 281.357697,98.971420 275.623627,98.552475 
	C275.552795,96.516853 275.995361,94.892242 275.939758,93.284866 
	C275.706635,86.544975 275.324402,79.810249 274.996765,73.073631 
z"/>
<path fill="#E0E0E0" opacity="1.000000" stroke="none" 
	d="
M514.986084,160.711777 
	C513.594910,162.114365 512.244324,163.893768 510.856140,163.923508 
	C499.441376,164.168045 488.019592,164.107712 476.600006,164.093796 
	C472.866974,164.089233 471.470673,161.716324 472.211761,158.523834 
	C472.522156,157.186813 474.538757,155.306274 475.813690,155.279251 
	C487.586182,155.029755 499.368256,155.261078 511.142700,155.063293 
	C515.385193,154.992035 515.057312,157.558441 514.986084,160.711777 
z"/>
<path fill="#DEDEDE" opacity="1.000000" stroke="none" 
	d="
M123.741730,205.701584 
	C122.241943,206.695282 120.882523,207.772537 119.507195,207.793243 
	C109.728416,207.940475 99.941353,207.693726 90.168129,207.969467 
	C86.801453,208.064468 85.688736,206.482117 85.346870,203.798248 
	C84.962692,200.782150 86.555618,198.940842 89.536880,198.900253 
	C99.633217,198.762756 109.734474,198.657562 119.828491,198.838654 
	C123.897957,198.911667 124.339920,201.996567 123.741730,205.701584 
z"/>
<path fill="#6984D5" opacity="1.000000" stroke="none" 
	d="
M316.598175,67.966660 
	C317.621338,74.563713 318.615448,81.227936 318.885406,87.921371 
	C319.053650,92.092491 319.947876,95.428123 323.881531,97.904541 
	C317.576935,98.582581 311.072144,98.965294 303.981140,99.382492 
	C303.976135,86.738174 307.352814,76.332367 316.598175,67.966660 
z"/>
<path fill="#E5E5E5" opacity="1.000000" stroke="none" 
	d="
M85.553299,157.046051 
	C86.682983,156.297318 87.863182,155.640991 89.048615,155.631409 
	C99.194954,155.549301 109.342728,155.638168 119.488922,155.547852 
	C122.141762,155.524231 124.020363,155.791733 124.041756,159.146545 
	C124.063362,162.533569 122.558632,164.064148 119.286377,164.054962 
	C109.640099,164.027878 99.991356,163.848145 90.348587,164.015976 
	C85.202728,164.105576 86.492393,160.116455 85.553299,157.046051 
z"/>
<path fill="#E0E0E0" opacity="1.000000" stroke="none" 
	d="
M493.933502,171.135254 
	C496.683990,170.899323 498.096558,171.286392 498.056152,174.229980 
	C497.905548,185.201645 497.996033,196.176605 497.996033,207.506454 
	C495.012634,207.506454 492.294464,207.506454 489.272125,207.506454 
	C489.272125,195.639465 489.272125,183.724350 489.272125,171.389755 
	C490.622375,171.307907 492.047272,171.221542 493.933502,171.135254 
z"/>
<path fill="#DADADA" opacity="1.000000" stroke="none" 
	d="
M86.167068,179.050949 
	C88.555077,178.145126 90.706718,177.162735 92.891159,177.083389 
	C99.016853,176.860825 105.156670,177.065384 111.289833,177.000305 
	C119.060379,176.917862 120.554192,178.858917 118.394707,186.882629 
	C108.715767,186.882629 98.938339,187.129272 89.182022,186.782227 
	C84.031303,186.599030 85.476997,182.552109 86.167068,179.050949 
z"/>
<path fill="#6A84D0" opacity="1.000000" stroke="none" 
	d="
M429.736664,66.677940 
	C428.420410,68.446175 426.984589,69.872597 425.335815,71.458778 
	C416.247162,69.090714 407.422821,66.357956 398.475494,64.115952 
	C393.522919,62.874947 389.659576,60.572922 387.056946,56.098465 
	C387.960388,52.538734 389.883270,52.349522 393.217834,53.578579 
	C405.279694,58.024353 417.473236,62.112804 429.736664,66.677940 
z"/>
<path fill="#612EB9" opacity="1.000000" stroke="none" 
	d="
M257.540710,75.058594 
	C258.910461,79.472740 260.332092,83.949173 260.878723,88.530014 
	C261.295349,92.021461 261.025482,95.475700 264.829407,97.809662 
	C257.916901,98.524277 250.785690,98.953415 242.158768,99.472565 
	C247.702667,90.523270 252.459488,82.844528 257.540710,75.058594 
z"/>
<path fill="#6445BD" opacity="1.000000" stroke="none" 
	d="
M284.553925,28.032772 
	C285.534027,29.913900 286.271973,31.862833 286.821625,33.863487 
	C288.101776,38.523205 289.017731,43.306282 290.647736,47.835518 
	C291.332153,49.737305 292.012115,50.729542 289.332886,51.457676 
	C283.580109,50.657501 278.080566,49.683819 271.532898,48.524574 
	C275.965607,41.400383 280.095917,34.762230 284.553925,28.032772 
z"/>
<path fill="#6D4797" opacity="1.000000" stroke="none" 
	d="
M6.610450,116.980263 
	C6.923562,154.110992 6.951480,191.587509 6.965999,229.530579 
	C6.626587,228.600693 6.017993,227.204681 6.015883,225.807755 
	C5.962739,190.629578 5.970500,155.451309 5.987529,120.273064 
	C5.988005,119.290680 6.207754,118.308388 6.610450,116.980263 
z"/>
<path fill="#6230B7" opacity="1.000000" stroke="none" 
	d="
M13.906824,223.483337 
	C13.559107,222.689346 13.031309,221.434814 13.029488,220.179520 
	C12.983521,188.499802 12.990116,156.820023 13.007498,125.140259 
	C13.007944,124.327538 13.233143,123.514946 13.605943,122.380882 
	C13.896180,155.713791 13.933998,189.368103 13.906824,223.483337 
z"/>
<path fill="#77C8F1" opacity="1.000000" stroke="none" 
	d="
M559.562378,110.742065 
	C558.502319,108.909966 557.778137,107.244499 557.078613,105.263657 
	C560.145996,105.958244 563.188721,106.968201 566.615356,108.407761 
	C566.347900,109.888428 565.696350,110.939499 565.044800,111.990555 
	C563.329285,111.629936 561.613770,111.269318 559.562378,110.742065 
z"/>
<path fill="#6EA4D8" opacity="1.000000" stroke="none" 
	d="
M565.327759,112.215744 
	C565.696350,110.939499 566.347900,109.888428 566.990112,108.475998 
	C568.126648,108.293770 569.272461,108.472908 570.720337,108.848145 
	C572.318054,110.791229 573.613586,112.538216 574.962097,114.613449 
	C571.880249,114.108101 568.745483,113.274513 565.327759,112.215744 
z"/>
<path fill="#6C86D1" opacity="1.000000" stroke="none" 
	d="
M274.717560,73.371727 
	C275.324402,79.810249 275.706635,86.544975 275.939758,93.284866 
	C275.995361,94.892242 275.552795,96.516853 275.158875,98.484436 
	C274.978394,98.835342 274.531921,98.950058 274.306976,98.902725 
	C274.200806,90.460205 274.319580,82.065010 274.717560,73.371727 
z"/>
<path fill="#6230B7" opacity="1.000000" stroke="none" 
	d="
M75.072609,248.757568 
	C74.821289,248.799286 74.528419,248.627670 74.086914,248.245300 
	C74.302536,248.204453 74.666801,248.374344 75.072609,248.757568 
z"/>
<path fill="#171717" opacity="1.000000" stroke="none" 
	d="
M408.912567,194.045944 
	C406.690125,197.663269 403.645874,198.888138 399.882538,198.838730 
	C395.098145,198.775894 390.312347,198.823517 384.868774,198.823517 
	C385.216583,194.704727 385.527405,191.024384 385.885834,186.780151 
	C391.644531,186.780151 396.952728,186.491882 402.211945,186.875214 
	C406.119965,187.160080 409.067535,189.204559 408.912567,194.045944 
z"/>
<path fill="#131313" opacity="1.000000" stroke="none" 
	d="
M298.471252,182.281952 
	C293.884949,182.371078 289.735352,182.371078 285.221436,182.371078 
	C285.221436,176.422760 285.221436,170.577591 285.221436,164.336563 
	C288.835449,164.174164 292.285126,163.914856 295.736664,163.886429 
	C302.321564,163.832169 306.771118,167.144608 307.817108,172.709961 
	C308.613342,176.946487 305.910736,179.823135 298.471252,182.281952 
z"/>
<path fill="#171717" opacity="1.000000" stroke="none" 
	d="
M340.288818,175.108688 
	C348.011261,172.264664 350.466522,172.764084 353.381805,177.753632 
	C353.914124,178.664719 354.544067,180.385040 354.135071,180.841690 
	C351.083740,184.248856 348.231476,188.329330 344.351959,190.271729 
	C342.647766,191.125000 337.859680,188.096527 336.048370,185.659042 
	C334.837067,184.028931 336.153015,180.269211 336.856689,177.599182 
	C337.115784,176.616028 338.863159,176.025070 340.288818,175.108688 
z"/>
<path fill="#171717" opacity="1.000000" stroke="none" 
	d="
M454.707764,175.176941 
	C458.404694,178.301331 458.067596,181.419189 455.238800,184.367310 
	C452.478851,187.243713 451.010498,192.159256 445.125366,190.202255 
	C439.201538,188.232391 436.895355,184.428848 438.801819,178.404434 
	C440.543579,172.900482 444.941162,170.745422 450.560425,172.780670 
	C451.929321,173.276489 453.138275,174.213837 454.707764,175.176941 
z"/>
</svg>