<?xml version="1.0" encoding="utf-8"?>
<!-- Generator: Adobe Illustrator 27.5.0, SVG Export Plug-In . SVG Version: 6.00 Build 0)  -->
<svg version="1.1" id="Layer_1" xmlns="http://www.w3.org/2000/svg" xmlns:xlink="http://www.w3.org/1999/xlink" x="0px" y="0px"
	 viewBox="0 0 4000 4000" style="enable-background:new 0 0 4000 4000;" xml:space="preserve">
<g>
	<rect style="fill:#FFF; fill-opacity: 0;" width="4000" height="4000"/>
	<ellipse style="opacity:0.2;fill:#010270;" cx="2010" cy="3677.5" rx="587.5" ry="77.5"/>
	<g>
		<g>
			<path style="fill:#9B9FBA;" d="M1830.88,1113.306l-286.073,619.219c-16.426,35.552-59.309,49.994-93.87,31.584l-75.073-39.907
				l-174.18-92.547c-32.465-17.253-45.419-57.159-29.214-90.176l22.379-45.75c147.557,65.208,158.415-132.453,83.837-171.258
				l69.121-141.273c0.055,0,0.055,0,0.055,0l117.185-239.497c16.26-33.182,56.002-47.403,89.625-32.025l242.694,111.067
				C1831.707,1038.397,1846.699,1079.021,1830.88,1113.306z"/>
		</g>
		<g>
			<path style="fill:#010270;" d="M1482.823,1791.467c-14.102,0-28.076-3.469-40.957-10.332l-249.236-132.444
				c-41.926-22.283-58.389-73.108-37.48-115.71l22.37-45.728c4.556-9.307,15.649-13.354,25.127-9.17
				c31.738,14.028,73.684,22.19,93.274-18.591c19.111-39.771,5.432-101.479-26.14-117.908c-9.285-4.834-13.022-16.189-8.423-25.593
				l69.121-141.272c0.203-0.41,0.415-0.813,0.644-1.206l116.594-238.291c21.035-42.917,71.541-60.952,114.98-41.089l242.695,111.069
				c21.255,9.688,37.456,27.109,45.598,49.045c8.159,21.987,7.239,45.83-2.595,67.141c-0.002,0.002-0.002,0.005-0.005,0.007
				l-286.074,619.219c-10.195,22.073-28.496,38.491-51.523,46.233C1501.61,1789.936,1492.188,1791.467,1482.823,1791.467z
				 M1204.373,1520.165l-14.575,29.79c-11.689,23.821-2.488,52.214,20.938,64.663l249.255,132.456
				c11.985,6.384,25.654,7.52,38.508,3.201c12.866-4.326,23.091-13.503,28.794-25.842l286.074-619.219
				c5.496-11.919,6.011-25.251,1.45-37.542c-4.544-12.241-13.582-21.963-25.454-27.375l-242.717-111.079
				c-24.29-11.106-52.52-1.013-64.275,22.971l-117.18,239.487c-0.2,0.41-0.415,0.813-0.644,1.206l-61.218,125.122
				c41.707,35.64,50.232,110.625,27.371,158.198C1321.922,1494.467,1287.94,1548.554,1204.373,1520.165z M1830.88,1113.305h0.051
				H1830.88z"/>
		</g>
		<g>
			<path style="fill:#9B9FBA;" d="M1047.917,1882.176c0,0-1.837,116.965,57.876,179.434s170.413-81.761,170.413-81.761
				l-42.718-115.752"/>
		</g>
		<g>
			<path style="fill:#3FB1EA;" d="M1655.277,1037.306l-70.849-29.741c-17.006-7.139-36.625,0.268-44.67,16.865l-256.878,529.907
				c-8.226,16.968-2.064,37.409,14.169,47.004l169.959,100.461c13.528,7.996,30.698,6.178,42.251-4.474l5.31-4.896"/>
		</g>
		<g>
			<path style="fill:#010270;" d="M1141.68,2096.591c-19.087,0-36.245-7.437-49.832-21.65
				c-64.443-67.417-63.301-187.969-63.22-193.066c0.166-10.549,8.77-18.989,19.282-18.989c0.105,0,0.208,0,0.31,0.002
				c10.649,0.168,19.148,8.936,18.987,19.583c-0.017,1.563-0.776,110.042,52.532,165.811c6.799,7.109,14.399,10.239,23.884,9.673
				c37.166-1.992,87.498-53.73,110.708-81.66l-38.94-105.517c-3.689-9.995,1.423-21.089,11.418-24.778
				c10-3.687,21.091,1.428,24.778,11.418l42.717,115.752c2.295,6.216,1.238,13.171-2.793,18.425
				c-7.952,10.359-79.582,101.301-145.781,104.89C1144.371,2096.557,1143.021,2096.591,1141.68,2096.591z"/>
		</g>
		<g>
			<path style="fill:#299ADF;" d="M1384.132,1829.205l-18.355,34.891l-380.329,42.718c0,0-36.765-68.459,0-208.299
				c36.765-139.84,123.084-279.073,209.401-403.81c84.775-122.477,150.588-111.948,152.958-111.508l-69.121,141.273
				c74.578,38.805,63.719,236.465-83.837,171.258l-22.379,45.75c-16.205,33.017-3.251,72.924,29.214,90.176l174.18,92.547
				L1384.132,1829.205z"/>
		</g>
		<g style="opacity:0.6;">
			<path style="fill:#FFFFFF;" d="M1347.807,1183.198l-15.213,31.033c-27.725,9.316-70.774,35.498-120.272,106.988
				c-86.318,124.737-172.635,263.97-209.401,403.81c-23.371,88.854-17.031,148.88-9.315,180.849l-8.158,0.937
				c0,0-36.765-68.459,0-208.299c36.765-139.84,123.084-279.073,209.401-403.81
				C1279.624,1172.229,1345.438,1182.757,1347.807,1183.198z"/>
		</g>
		<g>
			<path style="fill:#010270;" d="M985.443,1926.105c-7.044,0-13.604-3.858-16.992-10.164c-1.648-3.069-39.917-76.821-1.66-222.332
				c38.574-146.719,128.911-289.531,212.195-409.883c90.298-130.452,164.207-120.981,172.339-119.5
				c5.93,1.101,11.006,4.91,13.718,10.298c2.71,5.388,2.747,11.733,0.095,17.151l-61.809,126.328
				c41.707,35.64,50.232,110.625,27.371,158.198c-8.777,18.264-42.759,72.351-126.326,43.962l-14.575,29.79
				c-11.689,23.821-2.488,52.214,20.94,64.663l174.18,92.546c5.823,3.093,9.663,8.948,10.181,15.522l8.267,105.005
				c0.286,3.633-0.464,7.27-2.161,10.495l-18.354,34.89c-2.976,5.659-8.564,9.475-14.919,10.19l-380.33,42.717
				C986.878,1926.066,986.158,1926.105,985.443,1926.105z M1313.712,1208.989c-24.063,10.229-60.549,35.369-103,96.697
				c-81.372,117.588-169.553,256.799-206.606,397.734c-25.706,97.778-13.616,158.508-6.06,182.566l355.418-39.919l10.998-20.906
				l-6.997-88.892l-164.834-87.578c-41.926-22.283-58.389-73.108-37.48-115.71l22.37-45.728c4.556-9.307,15.649-13.354,25.127-9.17
				c31.738,14.028,73.684,22.19,93.274-18.591c19.111-39.771,5.432-101.479-26.14-117.908c-9.285-4.832-13.022-16.189-8.423-25.593
				L1313.712,1208.989z"/>
		</g>
		<g>
			<path style="fill:#9B9FBA;" d="M2429.594,3107.991c0,0-1.599,5.843-4.465,15.71c-11.906,40.899-45.97,150.753-80.035,193.747
				c-33.182,41.837-327.909,85.933-569.555,38.034h-0.055c-51.924-10.308-101.422-24.859-145.352-44.593
				c-23.592-10.583-42.111-30.04-52.088-53.852c-17.638-42.221-42.718-118.508-45.088-215.189
				C1529.317,2891.149,2429.594,3107.991,2429.594,3107.991z"/>
		</g>
		<g>
			<path style="fill:#FFFFFF;" d="M1600.037,2055.639c0,0-147.446,177.762-159.848,177.046
				c-12.402-0.717-454.741,44.813-334.855-163.266c53.577-92.988,113.327-153.234,162.99-191.377
				c61.458-47.293,107.539-60.798,107.539-60.798l189.226,70.719l3.308,15.985L1600.037,2055.639z"/>
		</g>
		<g>
			<path style="fill:#28328E;" d="M1568.398,1903.948l-53.852,43.159l-238.339-62.838c0,0-3.087-2.315-7.882-6.228
				c61.458-47.293,107.539-60.798,107.539-60.798l189.226,70.719L1568.398,1903.948z"/>
		</g>
		<g>
			<path style="fill:#010270;" d="M1338.194,2255.649c-141.15,0-228.394-25.522-259.854-76.172
				c-20.2-32.52-16.743-72.788,10.278-119.688c122.344-212.349,275.369-259.17,281.824-261.059
				c4.004-1.165,8.274-1.013,12.173,0.444l189.229,70.718c9.98,3.73,15.049,14.844,11.318,24.824
				c-3.731,9.981-14.854,15.056-24.824,11.318l-182.71-68.281c-27.773,10.491-152.368,65.635-253.577,241.294
				c-19.373,33.628-23.052,60.566-10.935,80.073c13.484,21.709,71.372,70.513,317.17,54.868c2.781-0.181,4.895-0.313,6.555-0.41
				c18.074-14.878,88.857-96.123,150.347-170.254c6.804-8.203,18.965-9.341,27.166-2.534c8.201,6.802,9.333,18.965,2.532,27.163
				c-0.369,0.449-37.434,45.112-75.54,89.106c-81.76,94.399-88.994,95.513-99.766,94.907c-1.482,0.039-4.509,0.249-8.843,0.527
				C1397.686,2254.594,1366.827,2255.649,1338.194,2255.649z M1439.097,2251.943c0.017,0,0.034,0,0.054,0
				C1439.132,2251.943,1439.115,2251.943,1439.097,2251.943z M1432.579,2215.278L1432.579,2215.278L1432.579,2215.278z
				 M1441.265,2213.417c0.005,0,0.007,0,0.012,0C1441.273,2213.417,1441.27,2213.417,1441.265,2213.417z"/>
		</g>
		<g style="opacity:0.2;">
			<path style="fill:#FFFFFF;" d="M1670.315,3123.701c0,0-24.345,109.211,50.067,160.656
				c74.412,51.446,115.752-10.105,104.728-63.388c-11.024-53.283-19.292-81.761-19.292-81.761"/>
		</g>
		<g>
			<path style="fill:#010270;" d="M2005.355,3395.59c-106.868,0-259.817-11.665-383.147-67.095
				c-27.937-12.554-49.939-35.293-61.953-64.028c-19.934-47.676-44.194-124.922-46.567-222.168
				c-0.415-17.061,6.819-32.104,20.923-43.496c19.138-15.459,77.366-62.49,499.133,8.853
				c204.878,34.653,398.438,81.099,400.369,81.563c5.066,1.221,9.421,4.434,12.078,8.916c2.659,4.482,3.389,9.849,2.029,14.878
				c-1.768,6.533-43.809,160.649-88.027,216.406c-29.666,37.407-173.118,59.863-293.85,64.902
				C2048.568,3395.063,2027.984,3395.59,2005.355,3395.59z M1678.739,3007.656c-76.479,0-107.48,11.147-119.885,21.162
				c-5.945,4.805-6.682,8.867-6.592,12.544c2.224,91.25,24.934,163.599,43.591,208.223c8.223,19.668,23.198,35.19,42.171,43.716
				c252.134,113.315,662.373,49.409,691.938,12.144c28.557-36.011,60.378-131.587,75.571-183.315
				c-54.058-12.563-212.527-48.408-378.408-76.46C1858.345,3017.123,1749.227,3007.656,1678.739,3007.656z"/>
		</g>
		<g>
			<path style="fill:#FFFFFF;" d="M2669.367,2574.429c-44.427,180.518-135.595,399.951-178.148,497.789
				c-14.11,32.411-44.207,54.9-79.207,59.53c-385.235,51.041-706.53-1.213-866.598-55.506c-55.396-18.74-91.5-37.757-104.288-52.805
				c-51.481-60.632-33.898-249.859-33.898-249.859s50.434-192.92,53.135-436.937c2.756-244.017,80.862-486.269,80.862-486.269
				s0,0,0.055-0.055l144.194-52.364c0,0,383.746,60.467,682.883,137.58c161.391,41.616,298.2,88.082,336.839,132.509
				c31.363,36.104,46.797,73.2,51.372,113.382C2768.142,2282.403,2711.643,2402.675,2669.367,2574.429z"/>
		</g>
		<g>
			<path style="fill:#28328E;" d="M2756.567,2181.423l-6.945,3.142c-208.078,48.12-994.422-116.524-1208.398-334.193
				c0,0,0,0,0.055-0.055l144.194-52.364c0,0,909.481,143.312,1019.722,270.089
				C2736.558,2104.145,2751.992,2141.24,2756.567,2181.423z"/>
		</g>
		<g style="opacity:0.3;">
			<path style="fill:#010270;" d="M2669.367,2574.429c-44.427,180.518-135.595,399.951-178.148,497.789
				c-14.11,32.411-44.207,54.9-79.207,59.53c-385.235,51.041-706.53-1.213-866.598-55.506
				c678.362-168.722,758.341-924.309,758.341-924.309c100.099-92.492-120.492-161.061-120.492-161.061l185.093-55.341
				c161.391,41.616,298.2,88.082,336.839,132.509c31.363,36.104,46.797,73.2,51.372,113.382
				C2768.142,2282.403,2711.643,2402.675,2669.367,2574.429z"/>
		</g>
		<g style="opacity:0.2;">
			<path style="fill:#FFFFFF;" d="M1863.888,1899.298l-67.238,96.165c0,0,238.836,94.626,238.836,89.114c0-5.512,0-133.15,0-133.15"
				/>
		</g>
		<g style="opacity:0.6;">
			<path style="fill:#FFFFFF;" d="M2737.385,2115.829c-2.591-3.417-5.402-6.78-8.323-10.196
				c-110.24-126.776-1019.722-270.089-1019.722-270.089l-144.195,52.364c-0.055,0.055-0.055,0.055-0.055,0.055
				s-78.105,242.253-80.861,486.27c-2.701,244.017-53.136,436.937-53.136,436.937s-13.119,140.942,16.426,218.496
				c-2.536-2.095-4.686-4.189-6.395-6.229c-51.481-60.632-33.898-249.859-33.898-249.859s50.434-192.92,53.135-436.937
				c2.756-244.017,80.862-486.269,80.862-486.269s0,0,0.055-0.055l144.194-52.364c0,0,909.481,143.312,1019.722,270.089
				C2718.809,2083.75,2729.448,2099.569,2737.385,2115.829z"/>
		</g>
		<g>
			<path style="fill:#010270;" d="M2097.633,3171.948c-143.542,0-262.698-13.193-350.032-27.612
				c-159.438-26.313-288.521-69.878-321.204-108.398c-55.105-64.946-40.254-243.945-38.379-264.141
				c0.095-1.045,0.278-2.08,0.542-3.091c0.498-1.909,49.851-193.682,52.52-432.275c2.732-244.111,80.986-489.512,81.775-491.96
				c1.829-5.669,6.172-10.176,11.77-12.212l144.255-52.437c3.074-1.116,6.37-1.433,9.595-0.925
				c2.278,0.359,230.657,36.504,469.561,87.695c328.774,70.452,512.515,132.207,561.719,188.789
				c91.699,105.459,57.781,217.632,10.837,372.891c-13.555,44.834-28.921,95.654-42.493,150.786
				c-45.442,184.624-140.459,411.768-179.202,500.859c-16.633,38.257-52.791,65.444-94.36,70.952
				C2299.569,3166.098,2193.194,3171.948,2097.633,3171.948z M1426.302,2776.845c-4.595,51.631-7.966,189.956,29.514,234.131
				c18.887,22.256,123.848,66.533,298.069,95.293c142.893,23.584,372.62,43.833,655.583,6.348
				c28.235-3.74,52.776-22.168,64.045-48.086c38.352-88.193,132.38-312.935,177.119-494.692
				c13.813-56.118,29.333-107.446,43.027-152.734c44.978-148.76,74.69-247.031-3.022-336.401
				c-86.091-99.009-748.496-222.529-1003.257-262.915l-130.557,47.456c-13.806,45.742-74.788,259.438-77.161,471.616
				C1477.069,2568.71,1431.153,2757.533,1426.302,2776.845z"/>
		</g>
		<g>
			<path style="fill:#9B9FBA;" d="M2517.787,2819.052c0,0-82.68,129.532-237.017,150.202
				c-154.336,20.67-96.46-180.518-96.46-180.518s48.23-59.254,82.68-107.484c34.45-48.23,5.512-83.544,96.46-54.174
				C2454.398,2656.448,2550.859,2744.64,2517.787,2819.052z"/>
		</g>
		<g>
			<path style="fill:#010270;" d="M2259.493,2990.043c-33.171,0-59.155-10.669-77.439-31.86
				c-49.353-57.192-17.659-170.005-16.284-174.78c0.718-2.5,1.936-4.829,3.577-6.846c0.481-0.591,48.254-59.355,81.946-106.519
				c8.472-11.86,12.488-23.018,16.03-32.856c5.222-14.507,11.14-30.942,30.146-37.495c15.295-5.273,35.452-2.734,71.909,9.033
				c72.065,23.271,139.355,77.49,163.638,131.851c13.367,29.922,14.197,59.771,2.4,86.318c-0.391,0.879-0.85,1.729-1.367,2.544
				c-3.574,5.596-89.358,137.329-250.718,158.94C2275.015,2989.487,2267.066,2990.043,2259.493,2990.043z M2201.851,2797.724
				c-7.771,29.771-18.994,102.393,9.446,135.288c13.596,15.728,35.476,21.313,66.912,17.119
				c135.618-18.164,213.97-127.734,222.551-140.317c6.677-16.143,5.681-34.136-2.974-53.511
				c-19.834-44.399-78.823-91.025-140.264-110.864c-39.741-12.837-47.034-9.575-47.734-9.17c-1.582,1.26-4.338,8.916-6.162,13.979
				c-3.953,10.981-9.365,26.016-20.938,42.217C2252.845,2734.247,2212.374,2784.697,2201.851,2797.724z M2517.786,2819.052h0.049
				H2517.786z"/>
		</g>
		<g>
			<g>
				<path style="fill:#FFFFFF;" d="M3063.475,1252.263l-108.752,666.953c0,0-40.073,195.676-370.793,157.092
					c-288.774-33.678-638.512-134.658-823.494-214.803c-0.661-0.276-1.102-0.441-1.378-0.552c-0.11,0-0.165-0.055-0.275-0.11
					c-26.182-11.354-49.002-22.323-67.798-32.575c-151.58-82.68-305.917-198.543-190.164-465.82s259.064-545.634,372.061-642.094
					c112.996-96.46,322.453-99.216,322.453-99.216s63.388-79.924,208.52-61.569c123.744,15.709,368.863,124.737,473.867,191.928
					c0,0,0.055,0,0.11,0.055c18.134,11.63,32.135,21.993,40.512,30.371c38.144,38.143,46.742,82.129,48.23,106.988
					c0.772,12.237-0.22,19.788-0.22,19.788s18.465,23.757,39.356,66.806C3034.427,1034.87,3067.72,1130.944,3063.475,1252.263z"/>
			</g>
			<g style="opacity:0.6;">
				<path style="fill:#FFFFFF;" d="M2954.337,835.776c-5.126-7.221-11.079-14.387-18.08-21.387
					c-56.993-56.939-369.305-203.944-514.49-222.299c-145.132-18.355-208.52,61.569-208.52,61.569l-93.704,110.792
					c0,0-71.27,95.027,53.797,181.841c-4.355-1.709-133.17-54.404-102.027-146.289c17.749-52.364,60.191-106.106,94.035-143.202
					c-68.625,6.89-195.291,28.442-274.553,96.074c-112.996,96.46-256.308,374.816-372.061,642.094
					c-51.867,119.721-49.498,209.071-17.473,278.632c-47.735-73.805-60.743-171.919-0.441-311.153
					c115.752-267.277,259.064-545.634,372.061-642.094c112.996-96.46,322.453-99.216,322.453-99.216s63.388-79.924,208.52-61.569
					c145.186,18.41,457.497,165.36,514.49,222.355C2935.872,799.452,2947.172,818.193,2954.337,835.776z"/>
			</g>
			<g>
				<g>
					<path style="fill:#28328E;" d="M1573.438,1201.654c-107.793,212.326,18.331,334.477,18.331,334.477
						c170.872,212.212,766.169,374.817,953.578,344.501c187.408-30.316,170.872-71.656,268.382-443.623
						s-147.943-442.174-147.943-442.174c-227.72,85.349-633.056-18.172-603.84-185.367
						c-211.934-73.49-281.159,17.972-281.159,17.972L1573.438,1201.654z"/>
				</g>
			</g>
			<g style="opacity:0.3;">
				<g>
					<path style="fill:#010270;" d="M2813.726,1437.026c-97.507,371.95-80.971,413.29-268.379,443.606
						c-187.408,30.316-782.705-132.288-953.578-344.501c0,0-7.992-7.717-18.19-22.709
						c186.141,204.771,757.626,358.942,940.515,329.343c187.408-30.316,170.872-71.656,268.379-443.607
						c45.695-174.344,16.094-282.38-28.332-347.973C2812.844,1109.723,2869.618,1223.766,2813.726,1437.026z"/>
				</g>
			</g>
			<g>
				<path style="fill:#010270;" d="M2667.093,2100.707c-26.965,0-55.439-1.743-85.398-5.239
					c-321.174-37.471-740.024-163.03-899.949-250.264c-74.175-40.459-156.262-92.39-202.693-170.781
					c-52.222-88.171-50.893-192.725,4.065-319.629c83.923-193.796,244.531-535.825,377.236-649.114
					c105.176-89.783,284.739-101.961,326.267-103.589c20.432-20.708,89.895-78.062,219.673-61.646
					c149.971,18.987,466.191,168.337,525.674,227.817c51.758,51.758,54.878,112.83,54.126,134.678
					c20.71,29.26,103.379,158.596,96.66,349.998c-0.029,0.813-0.107,1.626-0.239,2.429l-108.75,666.953
					c-0.042,0.256-0.088,0.51-0.142,0.764c-0.461,2.263-11.982,55.938-67.708,103.784
					C2848.704,2075.99,2768.597,2100.707,2667.093,2100.707z M2361.246,576.113c-103.086,0-148.757,54.509-150.869,57.107
					c-3.604,4.429-9.07,7.131-14.78,7.21c-2.026,0.029-203.916,3.877-310.188,94.597c-126.79,108.237-284.287,444.37-366.885,635.1
					c-110.579,255.344,35.808,361.628,181.699,441.206c156.824,85.54,569.023,208.838,885.945,245.815
					c303.672,35.405,347.053-130.442,349.602-141.565l108.467-665.21c6.584-199.451-92.078-328.555-93.079-329.839
					c-3.154-4.053-4.565-9.197-3.916-14.294c0.283-2.4,6.599-61.538-42.556-110.691c-55.024-55.024-362.429-198.999-503.235-216.824
					C2387.186,576.921,2373.787,576.113,2361.246,576.113z M3063.475,1252.262h0.049H3063.475z"/>
			</g>
			<g>
				<path style="fill:#010270;" d="M2473.709,1045.463c-74.802,0.002-145.945-8.081-207.283-23.911
					c-108.977-28.122-182.998-79.646-214.065-148.997c-19.207-42.881-11.631-94.751,19.299-132.146l108.809-131.565
					c6.792-8.208,18.95-9.358,27.161-2.571c8.21,6.79,9.363,18.95,2.571,27.161l-108.809,131.565
					c-21.646,26.172-27.07,62.197-13.816,91.785c58.333,130.225,291.978,166.191,497.668,144.05
					c40.259-4.331,78.367-22.004,107.3-49.758l111.372-106.843c0.437-0.42,0.894-0.818,1.367-1.196
					c0.798-0.63,80.796-61.863,175.969,53.359c6.787,8.213,5.627,20.373-2.585,27.158c-8.213,6.789-20.378,5.627-27.161-2.588
					c-66.897-80.986-115.562-52.241-121.836-47.974l-110.417,105.925c-35.056,33.63-81.184,55.039-129.88,60.281
					C2550.426,1043.388,2511.593,1045.463,2473.709,1045.463z"/>
			</g>
			<g>
				<path style="fill:#010270;" d="M1780.784,843.876c-3.528,0-7.073-1.118-10.066-3.435c-7.163-5.549-8.587-15.754-3.118-22.981
					c3.125-4.126,79.001-100.159,299.763-23.616c8.628,2.991,13.198,12.412,10.205,21.04c-2.991,8.63-12.405,13.201-21.04,10.205
					c-196.021-67.966-262.022,11.66-262.666,12.473C1790.584,841.698,1785.704,843.876,1780.784,843.876z"/>
			</g>
			<g style="opacity:0.2;">
				<path style="fill:#FFFFFF;" d="M1682.207,1694.183c-29.106-11.551-47.275-40.84-46.916-72.153
					c0.404-35.256,10.111-84.666,57.072-107.028c77.168-36.746,117.13,16.536,100.594,73.264
					C1779.374,1634.864,1743.476,1718.499,1682.207,1694.183z"/>
			</g>
			<g>
				<path style="fill:#010270;" d="M2492.376,1900.783c-105.942,0.002-270.544-31.841-435.164-85.737
					c-225.654-73.879-399.702-171.467-477.764-267.849c-5.439-5.54-35.347-37.781-53.035-93.694
					c-17.405-55.017-25.933-144.67,32.28-259.333c4.131-8.145,14.085-11.392,22.229-7.258c8.145,4.133,11.394,14.087,7.258,22.229
					c-100.583,198.13,10.359,310.469,15.129,315.154c0.462,0.449,0.933,0.967,1.338,1.467
					c73.879,91.753,242.583,185.737,462.854,257.854c189.648,62.092,385.059,95.259,475.203,80.693
					c152.253-24.629,158.853-50.889,221.985-302.104c9.524-37.9,20.32-80.857,33.042-129.39
					c38.274-145.996,26.731-265.227-33.376-344.802c-45.142-59.758-102.59-77.124-103.167-77.292
					c-8.745-2.561-13.794-11.721-11.262-20.474c2.534-8.755,11.65-13.811,20.408-11.309c2.72,0.779,67.205,19.829,119.104,87.427
					c47.117,61.37,92.354,176.216,40.286,374.836c-12.681,48.369-23.455,91.24-32.959,129.065
					c-63.579,252.998-75.037,298.586-248.777,326.69C2532.061,1899.533,2513.363,1900.783,2492.376,1900.783z"/>
			</g>
			<g>
				<path style="fill:#010270;" d="M1802.603,948.414c0,0,59.763-106.795,118.763-45.244c59,61.551,137.087,207.619,381.452,240.691
					s297.648-34.909,371.142,33.072c73.493,67.981,44.096,209.456,12.861,325.209c-31.235,115.752-49.608,260.902-198.432,262.739
					s-698.188-116.18-843.337-341.959c0,0-56.425-57.828,30.389-245.236C1675.441,1177.685,1741.971,1039.362,1802.603,948.414z"/>
			</g>
			<g style="opacity:0.3;">
				<path style="fill:#010270;" d="M2686.839,1502.123c-31.253,115.752-49.608,260.938-198.432,262.758
					c-146.729,1.819-682.992-112.941-836.998-332.595c189.172,190.882,663.205,290.153,799.792,288.499
					c148.824-1.819,167.18-147.005,198.432-262.758c26.568-98.555,51.814-215.685,13.395-290.318
					c3.583,2.756,7.22,5.788,10.914,9.205C2747.471,1244.932,2718.038,1386.37,2686.839,1502.123z"/>
			</g>
			<g style="opacity:0.3;">
				<path style="fill:#010270;" d="M3063.475,1252.263l-108.752,666.953c0,0-40.073,195.676-370.793,157.092
					c-288.774-33.678-638.512-134.658-823.494-214.803c38.364,15.379,725.491,286.404,959.475,61.403
					c240.655-231.504,229.631-613.707,207.583-742.302c-22.048-128.596-9.151-255.372,77.168-205.764
					c0.331,0.221,0.661,0.386,1.047,0.662C3034.427,1034.87,3067.72,1130.944,3063.475,1252.263z"/>
			</g>
			<g>
				<g>
					<path style="fill:#299ADF;" d="M3157.903,1634.636c-13.291,135.737-120.948,228.606-234.984,214.302
						s-187.847-128.561-170.872-263.887s115.993-234.968,230.112-221.344C3104.815,1378.351,3172.338,1487.213,3157.903,1634.636z"
						/>
				</g>
				<g style="opacity:0.3;">
					<path style="fill:#010270;" d="M3157.896,1634.631c-13.284,135.761-120.934,228.638-234.977,214.307
						c-67.688-8.489-121.209-52.199-149.982-114.595c26.237,21.497,57.876,35.718,93.484,40.183
						c114.043,14.331,221.693-78.546,234.977-214.307c5.842-59.86-1.764-113.382-21.111-156.762
						C3139.045,1450.254,3167.817,1533.321,3157.896,1634.631z"/>
				</g>
				<g style="opacity:0.48;">
					<path style="fill:#FFFFFF;" d="M2781.445,1515.921c38.326-57.096,103.809-39.503,95.541,31.234
						c0,0-15.617,49.608-14.698,100.135c-16.536,59.714-104.649,52.286-112.529-15.605"/>
				</g>
				<g>
					<path style="fill:#010270;" d="M2946.104,1869.679c-8.513,0-17.051-0.53-25.588-1.599
						c-60.879-7.637-113.569-41.455-148.359-95.222c-34.089-52.683-48.03-120.234-39.253-190.21
						c18.584-148.13,129.045-252.693,251.543-238.096c130.803,15.615,208.225,132.947,192.656,291.963l0,0
						c-7.266,74.214-42.39,141.516-96.367,184.651C3041.048,1852.88,2994.029,1869.679,2946.104,1869.679z M2961.676,1381.777
						c-93.711,0-175.542,86.533-190.486,205.676c-7.649,60.974,4.199,119.375,33.362,164.443
						c28.496,44.041,71.384,71.704,120.769,77.898c46.133,5.798,92.793-7.979,131.328-38.77
						c45.889-36.672,75.796-94.358,82.056-158.269c13.574-138.665-48.77-236.753-158.833-249.893
						C2973.768,1382.135,2967.696,1381.777,2961.676,1381.777z M3157.904,1634.635h0.049H3157.904z"/>
				</g>
				<g>
					<path style="fill:#010270;" d="M3003.734,1831.745c-5.393,0-10.784-0.334-16.152-1.008
						c-89.954-11.282-146.538-109.465-131.621-228.379c15.027-119.814,95.596-205.515,183.481-195.098
						c95.327,11.296,148.367,102.991,135.129,233.601c-6.582,64.929-35.632,122.295-79.702,157.39
						C3067.386,1820.136,3035.543,1831.745,3003.734,1831.745z M3024.837,1439.467c-65.369,0-123.982,70.698-136.062,167.007
						c-12.571,100.208,31.677,182.512,102.922,191.45c28.533,3.577,57.09-5.254,82.571-25.544
						c37.144-29.58,61.709-78.733,67.397-134.854l0,0c11.248-110.96-30.405-188.452-106.116-197.424
						C3031.966,1439.677,3028.387,1439.467,3024.837,1439.467z"/>
				</g>
			</g>
			<g style="opacity:0.2;">
				<path style="fill:#FFFFFF;" d="M1932.135,929.811c0,0,49.149-57.876,109.781-19.292c34.194,21.76,83.14,52.364-7.809,198.432
					c-65.697,105.514-116.294,223.251-142.962,299.194c-15.913,45.316-64.595,70.874-110.677,57.337
					c-44.272-13.005-84.161-43.549-64.68-113.883C1754.373,1212.301,1932.135,929.811,1932.135,929.811z"/>
			</g>
			<g>
				<path style="fill:#010270;" d="M2484.835,1781.437c-160.876,0.012-704.802-120.391-852.957-348.435
					c-10.442-12.124-55.998-79.731,28.557-262.268c2.834-5.896,67.588-140.122,128.069-230.979
					c5.137-9.028,39.16-65.757,85.93-71.731c14.697-1.873,36.833,0.715,58.87,23.701c10.054,10.491,20.649,23.342,31.865,36.948
					c56.465,68.489,141.794,171.992,339.866,198.801c110.693,14.976,181.379,8.897,232.993,4.46
					c61.514-5.288,102.144-8.787,147.161,32.859c77.219,71.426,54.092,206.416,17.598,341.655
					c-3.347,12.407-6.489,24.929-9.814,38.184c-27.634,110.146-58.958,234.988-204.377,236.782
					C2487.371,1781.43,2486.104,1781.437,2484.835,1781.437z M1882.237,900.6c-1.199,0-2.402,0.076-3.613,0.232
					c-26.763,3.418-54.119,42.305-61.589,55.659c-0.21,0.373-0.435,0.74-0.671,1.096
					c-59.307,88.955-125.361,225.893-126.021,227.266c-79.297,171.182-33.633,226.294-33.162,226.831
					c0.776,0.798,1.179,1.36,1.78,2.295c138.381,215.249,674.177,334.385,825.854,334.387c1.145,0,2.268-0.007,3.369-0.022
					c119.951-1.479,145.579-103.621,172.71-211.758c3.213-12.813,6.538-26.062,9.963-38.755
					c32.168-119.207,56.357-249.114-8.125-308.76c-34.297-31.721-61.738-29.363-121.87-24.187
					c-53.149,4.575-125.942,10.835-240.261-4.636c-210.913-28.545-301.204-138.066-360.95-210.537
					c-11.282-13.684-21.025-25.503-30.225-35.1C1900.418,905.209,1891.485,900.6,1882.237,900.6z M1802.603,948.415h0.051H1802.603z
					"/>
			</g>
			<g>
				<path style="fill:#3FB1EA;" d="M1733.743,1206.975L1733.743,1206.975c7.408,11.838,23.637,13.756,33.936,4.324
					c58.326-53.415,145.361-42.424,151.16,60.885c0.706,12.582,11.859,21.996,24.39,20.667l5.63-0.597
					c12.885-1.367,21.536-11.752,20.832-23.612c-9.087-153.135-154.562-178.648-234.154-87.629
					C1729.227,1188.23,1728.657,1198.848,1733.743,1206.975z"/>
			</g>
			<g>
				<path style="fill:#3FB1EA;" d="M2315.088,1431.802l2.373,2.31c8.809,8.574,22.968,8.484,31.504-0.362
					c51.301-53.159,130.369-34.549,135.03,59.565c0.598,12.072,10.262,21.688,22.348,21.688h12.657
					c12.592,0,22.849-10.413,22.371-22.996c-5.733-150.92-147.995-178.251-227.307-91.26
					C2305.964,1409.632,2306.471,1423.414,2315.088,1431.802z"/>
			</g>
			<g style="opacity:0.3;">
				<path style="fill:#010270;" d="M2966.574,888.911c-31.529-27.78-74.136-53.411-114.374-39.025
					c-77.168,27.56-138.406,145.516-264.907,170.156c-126.446,24.583-359.823-30.426-359.823-30.426l-54.018-28.828
					c0,0,291.034,65.483,427.015-15.379c135.981-80.806,160.345-160.785,222.3-164.533c62.01-3.693,54.955-29.379,54.955-29.379
					s0.055,0,0.11,0.055c18.134,11.63,32.135,21.993,40.512,30.371C2956.488,820.067,2965.086,864.053,2966.574,888.911z"/>
			</g>
		</g>
		<g>
			<g>
				<path style="fill:#299ADF;" d="M2295.487,3049.178c0,0-255.426,36.765-535.051-33.072
					c-242.914-60.687-264.577-181.015-266.064-211.496c-0.221-4.63,0-7.166,0-7.166l24.804-97.342l79.924-46.962
					c0,0,413.401-17.362,569.61,4.686c3.859,0.551,7.552,1.323,11.19,2.26C2323.488,2697.788,2295.487,3049.178,2295.487,3049.178z"
					/>
			</g>
			<g>
				<path style="fill:#010270;" d="M2124.927,3078.349c-98.938,0-230.571-8.921-369.165-43.525
					c-292.322-72.983-281.221-232.383-280.603-239.131c0.964-10.61,10.337-18.418,20.964-17.461
					c10.554,0.967,18.347,10.259,17.473,20.801c-0.4,5.879-5.896,134.092,251.511,198.359
					c233.904,58.398,453.213,40.879,512.183,34.531c5.957-106.963-3.645-339.805-111.274-354.995
					c-143.711-20.278-514.741-6.519-561.294-4.692l-75.759,44.482c-9.18,5.396-21.008,2.324-26.404-6.865
					s-2.319-21.011,6.868-26.406l79.924-46.929c2.725-1.602,5.801-2.505,8.958-2.642c16.953-0.703,416.956-17.197,573.101,4.849
					c172.188,24.302,144.551,396.167,143.291,411.987c-0.715,8.984-7.561,16.279-16.484,17.563
					C2292.872,3069.042,2225.941,3078.349,2124.927,3078.349z"/>
			</g>
			<g>
				<path style="fill:#B5B8C9;" d="M2168.71,2576.964v80.861l-220.48,139.619c-50.655-83.066-96.184-60.247-137.8,41.34
					l-14.717,26.678c0,0-25.631-43.986-62.947-86.428c-37.923-43.049-87.862-84.5-135.486-77.113
					c-22.269,3.472-39.741,10.583-53.466,19.458c-44.593,28.828-49.443,76.065-49.443,76.065l-383.195-104.948
					c-23.26-6.394-39.357-27.505-39.357-51.593v-54.734l-13.835-5.402c-2.701-1.048-5.291-2.315-7.771-3.804h-0.055
					c-13.835-7.937-23.867-21.332-27.505-37.096L915.17,2076.033c-9.095-39.135,26.182-74.081,65.208-64.656l646.889,156.156
					c40.514,9.756,70.775,43.655,75.901,85.105l24.914,201.905L2168.71,2576.964z"/>
			</g>
			<g style="opacity:0.6;">
				<path style="fill:#FFFFFF;" d="M1703.166,2252.638l2.535,20.725c-10.693-32.466-37.536-57.655-71.546-65.868l-646.889-156.156
					c-33.624-8.102-64.436,16.702-66.53,48.727l-5.567-24.033c-9.095-39.135,26.182-74.081,65.208-64.656l646.889,156.156
					C1667.78,2177.289,1698.041,2211.188,1703.166,2252.638z"/>
			</g>
			<g style="opacity:0.6;">
				<polygon style="fill:#FFFFFF;" points="2168.71,2567.318 2168.71,2605.351 1734.971,2484.859 1730.12,2445.448 				"/>
			</g>
			<g>
				<path style="fill:#010270;" d="M1795.711,2884.75c-6.855,0-13.205-3.643-16.665-9.575
					c-27.07-46.406-111.902-164.595-178.801-154.189c-79.016,12.285-86.614,77.764-86.682,78.423
					c-0.579,5.645-3.608,10.747-8.286,13.95c-4.683,3.203-10.537,4.194-16.003,2.695l-383.198-104.971
					c-31.526-8.638-53.545-37.5-53.545-70.19v-41.553l-1.582-0.615c-23.735-9.292-41.336-29.653-47.09-54.478L896.375,2080.39
					c-5.793-24.932,1.594-50.576,19.766-68.589c18.174-18.018,43.867-25.186,68.765-19.177l646.887,156.155
					c48.062,11.577,84.443,52.363,90.52,101.489l23.34,189.136l428.223,118.97c8.35,2.319,14.128,9.922,14.128,18.589v80.864
					c0,6.611-3.386,12.764-8.97,16.299l-220.481,139.619c-4.37,2.773-9.673,3.662-14.707,2.49
					c-5.039-1.177-9.392-4.326-12.087-8.745c-16.856-27.642-32.915-42.334-45.125-41.353c-7.954,0.635-29.565,9.692-58.352,79.961
					c-0.281,0.684-0.6,1.353-0.959,2.002l-14.717,26.68c-3.354,6.084-9.719,9.888-16.663,9.971
					C1795.865,2884.75,1795.787,2884.75,1795.711,2884.75z M1766.793,2789.223c10.862,13.818,20.178,26.963,27.563,37.959
					c27.346-65.19,55.759-96.846,89.219-99.507c24.709-2.026,47.817,12.251,70.3,43.359l195.544-123.828v-55.581l-398.65-110.752
					l35.393,286.694c1.304,10.576-6.211,20.205-16.785,21.509C1768.509,2789.184,1767.64,2789.218,1766.793,2789.223z
					 M967.408,2029.111c-8.96,0-17.444,3.486-24.102,10.088c-8.723,8.652-12.131,20.483-9.346,32.471l107.485,463.867
					c2.878,12.417,11.685,22.607,23.56,27.256l13.843,5.41c7.397,2.896,12.266,10.024,12.266,17.969v54.722
					c0,15.356,10.344,28.916,25.156,32.974l363.887,99.683c11.648-34.438,44.16-79.805,114.16-90.688
					c56.206-8.74,111.643,36.162,152.71,82.617l-38.083-308.506c-0.003-0.02-0.005-0.044-0.01-0.063l-24.915-201.909
					c-4.114-33.262-28.735-60.874-61.27-68.711L975.85,2030.131C973.016,2029.448,970.189,2029.111,967.408,2029.111z"/>
			</g>
			<g>
				<path style="fill:#010270;" d="M1548.101,2738.071c-1.711,0-3.452-0.229-5.183-0.713l-476.27-132.603
					c-10.266-2.856-16.269-13.496-13.411-23.76c2.856-10.259,13.479-16.279,23.757-13.408l476.27,132.603
					c10.266,2.856,16.27,13.496,13.411,23.76C1564.3,2732.48,1556.548,2738.071,1548.101,2738.071z"/>
			</g>
			<g>
				<path style="fill:#010270;" d="M1775.518,2792.875c-7.075,0-13.889-3.911-17.271-10.669c-4.766-9.531-0.901-21.118,8.628-25.884
					l393.208-196.616c9.521-4.756,21.116-0.903,25.884,8.628c4.766,9.531,0.901,21.118-8.628,25.884l-393.208,196.616
					C1781.363,2792.216,1778.419,2792.875,1775.518,2792.875z"/>
			</g>
			<g style="opacity:0.6;">
				<path style="fill:#FFFFFF;" d="M1224.413,2305.045l-8.231-57.577c-0.139-2.187,0.376-4.365,1.48-6.258l19.509-31.578
					c1.648-2.824,4.893-4.308,8.107-3.706l102.615,20.572c2.549,0.478,4.716,2.147,5.826,4.491l20.68,36.028
					c0.98,2.068,1.557,4.303,1.702,6.587l8.012,65.582c0.337,5.319-4.538,9.465-9.733,8.278l-141.35-32.291
					C1228.231,2314.077,1224.726,2309.956,1224.413,2305.045z"/>
			</g>
			<g>
				<path style="fill:#010270;" d="M1216.145,2294.021l-8.231-57.576c-0.139-2.187,0.376-4.365,1.48-6.258l19.509-31.578
					c1.648-2.824,4.893-4.308,8.107-3.706l102.615,20.572c2.549,0.477,4.716,2.147,5.826,4.491l20.68,36.028
					c0.98,2.068,1.557,4.303,1.702,6.587l8.012,65.582c0.337,5.319-4.538,9.465-9.733,8.278l-141.35-32.291
					C1219.963,2303.053,1216.458,2298.932,1216.145,2294.021z"/>
			</g>
			<g>
				<path style="fill:#010270;" d="M1759.417,2722.084c-5.208,0-10.19-2.969-12.52-8.003c-3.191-6.909-0.178-15.098,6.729-18.291
					l91.956-42.49l-104.963-42.52c-7.053-2.861-10.457-10.894-7.598-17.949c2.856-7.051,10.896-10.444,17.944-7.598l134.438,54.463
					c5.09,2.065,8.472,6.953,8.604,12.441c0.132,5.493-3.01,10.537-7.996,12.842l-120.823,55.83
					C1763.316,2721.674,1761.351,2722.084,1759.417,2722.084z"/>
			</g>
			<g>
				<path style="fill:#010270;" d="M1824.898,2640.864c-5.059,0-9.927-2.798-12.339-7.632c-3.398-6.807-0.635-15.083,6.174-18.481
					l62.861-31.372l-149.46-48.452c-7.239-2.349-11.206-10.122-8.857-17.358c2.349-7.241,10.107-11.191,17.358-8.862l181.511,58.843
					c5.322,1.729,9.072,6.499,9.492,12.08c0.417,5.581-2.583,10.859-7.588,13.359l-93.008,46.421
					C1829.066,2640.395,1826.966,2640.864,1824.898,2640.864z"/>
			</g>
			<g style="opacity:0.3;">
				<path style="fill:#010270;" d="M1760.436,2780.909l-27.67-1.874c-37.923-43.049-87.862-84.5-135.486-77.113
					c-22.269,3.472-39.741,10.583-53.466,19.458l-373.384-107.76l-120.217-36.655h-0.055l-16.922-40.403
					c438.15,149.982,702.396,100.042,644.905-319.697l18.521,36.82L1760.436,2780.909z"/>
			</g>
			<g style="opacity:0.3;">
				<path style="fill:#010270;" d="M1463.615,2695.032c-52.512,29.194-160.477,27.58-391.793-42.56l40.403,30.213l372.061,98.223
					l34.909-57.857"/>
			</g>
			<g style="opacity:0.3;">
				<path style="fill:#010270;" d="M2150.302,2586.17c-4.763,2.382-395.109,194.384-395.109,194.384s39.602,72.948,40.521,70.192
					s46.852-95.542,46.852-95.542l55.296-6.953l54.886,41.863l212.271-130.451"/>
			</g>
			<g style="opacity:0.2;">
				<path style="fill:#FFFFFF;" d="M1102.476,2350.919l-51.423-10.979c-9-1.922-15.999-9.003-17.816-18.025l-32.465-177.147
					c-3.748-18.41,12.953-34.45,31.197-30.04l47.128,11.41c9.922,2.37,17.473,10.417,19.292,20.449l28.125,181.108
					C1129.016,2341.774,1116.46,2353.904,1102.476,2350.919z"/>
			</g>
			<g style="opacity:0.2;">
				<path style="fill:#FFFFFF;" d="M1123.524,2507.182l-39.797-14c-8.544-3.032-14.883-10.308-16.646-19.182l-9.864-48.98
					c-2.236-11.103,7.668-20.845,18.732-18.428l51.606,11.275c11.97,2.615,21.182,12.191,23.333,24.253l6.479,36.345
					C1160.785,2497.812,1142.044,2513.742,1123.524,2507.182z"/>
			</g>
			<g>
				<polygon style="fill:#010270;" points="1967.092,2793.394 1960.105,2852.747 1929.369,2801.494 				"/>
			</g>
			<g style="opacity:0.3;">
				<path style="fill:#010270;" d="M2295.487,3049.178c0,0-255.426,36.765-535.051-33.072
					c-242.914-60.687-264.577-181.015-266.064-211.496c13.063-33.182,32.631-54.459,32.631-54.459
					c-12.402,35.828,2.756,84.058,86.814,154.336c84.058,70.278,511.239,122.642,598.053,44.096
					c86.814-78.546-22.048-229.795-22.048-229.795l-235.639,106.326l-13.78-36.379l239.497-128.651
					C2323.488,2697.788,2295.487,3049.178,2295.487,3049.178z"/>
			</g>
			<defs>
				<filter id="Adobe_OpacityMaskFilter" filterUnits="userSpaceOnUse" x="2003.966" y="2851.59" width="198.136" height="111.969">
					<feFlood  style="flood-color:white;flood-opacity:1" result="back"/>
					<feBlend  in="SourceGraphic" in2="back" mode="normal"/>
				</filter>
			</defs>
			<mask maskUnits="userSpaceOnUse" x="2003.966" y="2851.59" width="198.136" height="111.969" id="SVGID_1_">
				<g style="filter:url(#Adobe_OpacityMaskFilter);">
					<defs>
						
							<filter id="Adobe_OpacityMaskFilter_00000118364002816804686450000013639340790767768704_" filterUnits="userSpaceOnUse" x="2003.966" y="2851.59" width="198.136" height="111.969">
							<feFlood  style="flood-color:white;flood-opacity:1" result="back"/>
							<feBlend  in="SourceGraphic" in2="back" mode="normal"/>
						</filter>
					</defs>
					<mask maskUnits="userSpaceOnUse" x="2003.966" y="2851.59" width="198.136" height="111.969" id="SVGID_1_">
						<g style="filter:url(#Adobe_OpacityMaskFilter_00000118364002816804686450000013639340790767768704_);">
						</g>
					</mask>
					
						<linearGradient id="SVGID_00000158735471027828843230000006342234200694654081_" gradientUnits="userSpaceOnUse" x1="2049.624" y1="2814.9307" x2="2114.3906" y2="2930.6833">
						<stop  offset="0" style="stop-color:#FFFFFF"/>
						<stop  offset="1" style="stop-color:#000000"/>
					</linearGradient>
					<path style="mask:url(#SVGID_1_);fill:url(#SVGID_00000158735471027828843230000006342234200694654081_);" d="
						M2201.891,2898.973c3.537,27.89-37.868,56.114-92.48,63.039c-54.612,6.926-101.751-10.07-105.287-37.96
						c-3.537-27.89,52.999-64.38,107.611-71.306C2166.347,2845.822,2198.354,2871.083,2201.891,2898.973z"/>
				</g>
			</mask>
			
				<linearGradient id="SVGID_00000041988814035304882440000006146592837534738312_" gradientUnits="userSpaceOnUse" x1="2049.624" y1="2814.9307" x2="2114.3906" y2="2930.6833">
				<stop  offset="0" style="stop-color:#FFFFFF"/>
				<stop  offset="1" style="stop-color:#F1F2F2"/>
			</linearGradient>
			<path style="opacity:0.4;fill:url(#SVGID_00000041988814035304882440000006146592837534738312_);" d="M2201.891,2898.973
				c3.537,27.89-37.868,56.114-92.48,63.039c-54.612,6.926-101.751-10.07-105.287-37.96c-3.537-27.89,52.999-64.38,107.611-71.306
				C2166.347,2845.822,2198.354,2871.083,2201.891,2898.973z"/>
		</g>
		<g style="opacity:0.3;">
			<polyline style="fill:#010270;" points="2287.201,2793.556 2345.077,2759.356 2262.397,2712.946 2268.827,2737.75 			"/>
		</g>
		<g style="opacity:0.3;">
			<path style="fill:#010270;" d="M2381.766,2765.672c0,0,39.56,103.448-78.029,130.089l0,58.795
				c76.755-5.269,139.75-38.953,180.978-117.59"/>
		</g>
		<g>
			<path style="fill:#010270;" d="M2652.532,2209.565c-125.63,0-313.25-27.451-508.911-76.382
				c-138.572-34.653-475.82-130.449-614.197-271.201c-6.401-6.511-6.314-16.98,0.2-23.384c6.506-6.404,16.98-6.318,23.384,0.2
				c91.914,93.491,315.703,191.548,598.638,262.305c250.496,62.642,494.856,90.352,594.253,67.373
				c8.892-2.056,17.776,3.491,19.834,12.388c2.058,8.901-3.489,17.778-12.388,19.839
				C2727.493,2206.674,2693.26,2209.565,2652.532,2209.565z"/>
		</g>
		<g>
			<path style="fill:#FFFFFF;" d="M2203.524,2669.922l352.846,189.545c0,0,139.637-176.25,172.709-414.019
				c33.072-237.77-135.963-272.679-248.04-257.98s-183.734,183.734-196.595,240.691
				C2271.583,2485.116,2203.524,2669.922,2203.524,2669.922z"/>
		</g>
		<g style="opacity:0.3;">
			<path style="fill:#010270;" d="M2729.062,2445.448c-33.072,237.788-172.692,414.007-172.692,414.007l-46.797-25.135
				c15.158-19.954,140.115-188.841,171.148-412.023c16.812-120.934-18.686-189.393-72.373-225.496
				C2686.564,2221.936,2750.559,2290.781,2729.062,2445.448z"/>
		</g>
		<g style="opacity:0.6;">
			<path style="fill:#FFFFFF;" d="M2684.911,2243.928c-52.034-35.883-121.65-40.788-177.212-33.513
				c-112.114,14.717-183.77,183.77-196.613,240.71c-11.3,50.214-65.593,199.81-78.27,234.481l-29.269-15.71
				c0,0,68.019-184.763,80.916-241.757c12.844-56.939,84.5-225.992,196.559-240.655
				C2546.835,2178.832,2632.326,2187.321,2684.911,2243.928z"/>
		</g>
		<g>
			<path style="fill:#010270;" d="M2556.361,2878.759c-3.101,0-6.233-0.747-9.119-2.295l-352.847-189.546
				c-8.469-4.551-12.297-14.644-8.975-23.662c0.676-1.836,67.769-184.268,80.205-239.346
				c10.51-46.548,81.431-238.33,212.908-255.566c42.219-5.547,147.847-10.947,216.553,58.291
				c48.831,49.214,66.697,123.726,53.103,221.47c-33.411,240.21-170.862,415.977-176.697,423.345
				C2567.725,2876.2,2562.098,2878.759,2556.361,2878.759z M2227.386,2660.839l323.396,173.726
				c31.584-44.326,132.256-198.13,159.189-391.772c11.848-85.186-2.375-148.77-42.275-188.979
				c-56.555-56.997-147.629-52.007-184.146-47.217c-100.442,13.174-168.23,172.412-180.288,225.811
				C2292.362,2480.683,2244.237,2614.545,2227.386,2660.839z"/>
		</g>
		<g>
			<path style="fill:#28328E;" d="M2331.183,2738.499l92.899-239.612c0,0,45.474-126.307,136.422-105.637
				c90.948,20.67,41.34,146.068,6.89,224.615c-34.45,78.546-98.986,194.351-98.986,194.351L2331.183,2738.499z"/>
		</g>
		<g style="opacity:0.3;">
			<path style="fill:#010270;" d="M2610.885,2446.165c-5.953-3.417-12.953-6.063-21-7.883
				c-90.948-20.67-136.422,105.666-136.422,105.666l-83.508,215.409l-38.749-20.835l92.877-239.663
				c0,0,45.474-126.28,136.422-105.61C2592.033,2400.415,2606.64,2420.148,2610.885,2446.165z"/>
		</g>
		<g>
			<path style="fill:#010270;" d="M2468.394,2828.754c-2.642,0-5.322-0.635-7.81-1.973l-137.227-73.716
				c-7.354-3.95-10.61-12.759-7.593-20.542l92.9-239.614c1.919-5.342,51.514-139.424,155.503-115.781
				c25.859,5.874,44.307,19.434,54.829,40.303c25.549,50.669-2.424,129.468-36.458,207.075
				c-34.37,78.359-99.038,194.595-99.688,195.762C2479.832,2825.688,2474.202,2828.754,2468.394,2828.754z M2351.883,2730.849
				l109.934,59.053c18.206-33.286,63.757-117.856,90.435-178.677c17.737-40.444,59.272-135.156,37.214-178.906
				c-5.95-11.802-16.624-19.307-32.627-22.944c-75.486-17.139-116.797,94.004-117.205,95.132L2351.883,2730.849z"/>
		</g>
		<g>
			<path style="fill:#010270;" d="M2255.848,2538.359c-1.743,0-3.518-0.278-5.261-0.864l-191.88-64.365
				c-6.738-2.261-11.277-8.574-11.277-15.679v-136.479c-387.461-118.267-390.935-120.938-393.992-123.296
				c-7.234-5.576-8.577-15.957-3-23.193c4.875-6.323,13.43-8.154,20.347-4.766c16.545,6.328,246.277,76.895,398.008,123.198
				c6.956,2.124,11.709,8.54,11.709,15.815v136.826l180.603,60.581c8.66,2.905,13.323,12.28,10.42,20.938
				C2269.205,2533.989,2262.76,2538.354,2255.848,2538.359z M1673.597,2171.459c0.012,0.01,0.022,0.015,0.032,0.024
				C1673.619,2171.474,1673.609,2171.469,1673.597,2171.459z M1673.568,2171.435c0.01,0.01,0.017,0.015,0.024,0.02
				C1673.585,2171.449,1673.577,2171.445,1673.568,2171.435z"/>
		</g>
		<g>
			<path style="fill:#010270;" d="M2039.852,3288.993c-92.28,0-173.86-8.457-238.999-18.76
				c-152.375-24.097-247.756-62.197-251.743-63.809c-8.464-3.418-12.554-13.052-9.138-21.519c3.418-8.467,13.052-12.563,21.521-9.15
				c3.787,1.533,384.001,151.416,824.314,37.065c8.833-2.285,17.869,3.008,20.164,11.851c2.295,8.838-3.01,17.866-11.848,20.161
				C2267.642,3277.68,2146.588,3288.993,2039.852,3288.993z"/>
		</g>
		<g style="opacity:0.3;">
			<path style="fill:#010270;" d="M2425.129,3123.701c-11.906,40.899-45.97,150.753-80.035,193.747
				c-33.182,41.837-327.909,85.933-569.555,38.034c379.391,44.427,356.516-203.173,356.516-203.173L2425.129,3123.701z"/>
		</g>
		<g>
			<path style="fill:#010270;" d="M1514.578,1963.647c-1.394,0-2.813-0.178-4.224-0.552l-238.362-62.827
				c-8.831-2.327-14.104-11.372-11.775-20.203c2.324-8.83,11.382-14.109,20.203-11.775l238.362,62.827
				c8.831,2.327,14.104,11.372,11.775,20.203C1528.604,1958.74,1521.907,1963.647,1514.578,1963.647z"/>
		</g>
		<g style="opacity:0.3;">
			<path style="fill:#010270;" d="M1525.625,1906.814c-34.431,143.24-151.846,178.223-368.262,84.058l-30.53,52.553l343.125,86.134
				l18.461-84.945"/>
		</g>
		<g>
			<path style="fill:#010270;" d="M1278.673,1343.766c-2.847,0-5.74-0.632-8.469-1.97c-9.57-4.685-13.528-16.243-8.843-25.811
				l68.674-140.249c2.91-6.951,9.763-11.831,17.773-11.831h0.054c6.658,0,12.844,3.433,16.37,9.082
				c3.523,5.647,3.884,12.715,0.957,18.694l-69.175,141.272C1292.664,1339.792,1285.806,1343.766,1278.673,1343.766z"/>
		</g>
		<g>
			<polygon style="fill:#010270;" points="1283.646,1337.739 1227.976,1332.585 1273.727,1300.452 			"/>
		</g>
		<g>
			<path style="fill:#010270;" d="M1485.196,1723.368c-9.109,0-18.281-2.412-26.604-7.334l-169.958-100.459
				c-23.455-13.865-32.52-43.933-20.635-68.452l256.878-529.907c11.877-24.502,40.84-35.444,65.952-24.898l70.85,29.741
				c8.421,3.535,12.38,13.225,8.845,21.648c-3.533,8.418-13.228,12.375-21.648,8.845l-70.85-29.741
				c-8.904-3.74-19.177,0.142-23.389,8.833L1297.76,1561.55c-4.438,9.153-1.055,20.378,7.703,25.554l169.958,100.461
				c7.302,4.312,16.394,3.357,22.629-2.395l5.31-4.895c6.719-6.184,17.18-5.759,23.367,0.95c6.189,6.716,5.764,17.178-0.95,23.367
				l-5.31,4.895C1510.528,1718.649,1497.928,1723.366,1485.196,1723.368z"/>
		</g>
		<g>
			<path style="fill:#010270;" d="M1313.265,1369.589c-2.085,0-4.199-0.476-6.187-1.475c-6.797-3.423-9.534-11.707-6.113-18.506
				l188.062-373.63c37.08-72.214,97.266-63.657,99.812-63.257c7.52,1.179,12.656,8.232,11.477,15.75
				c-1.174,7.48-8.164,12.615-15.632,11.494c-1.939-0.256-43.53-5.166-71.089,48.503l-188.01,373.533
				C1323.162,1366.811,1318.306,1369.587,1313.265,1369.589z"/>
		</g>
		<g>
			<path style="fill:#010270;" d="M1231.094,1661.069c-2.18,0-4.392-0.517-6.453-1.614c-44.639-23.716-39.954-65.947-31.24-84.966
				l32.468-71.919c3.132-6.934,11.301-10.022,18.228-6.887c6.938,3.13,10.022,11.292,6.89,18.228l-32.5,71.99
				c-2.317,5.269-12.334,32.524,19.084,49.219c6.721,3.569,9.275,11.912,5.703,18.633
				C1240.799,1658.412,1236.028,1661.069,1231.094,1661.069z"/>
		</g>
		<g style="opacity:0.3;">
			<path style="fill:#010270;" d="M1253.331,1659.096c69.714,107.013,19.99,185.141-149.17,234.384h54.296
				c0,0-26.283,26.649-4.564,101.983c0,0,138.652-149.266,228.321-190.613l-6.35-80.648"/>
		</g>
		<g style="opacity:0.3;">
			<path style="fill:#010270;" d="M1441.107,1559.099c0,0,18.979,170.565-221.096,67.828l7.965,27.714l222.96,109.469l50.4,0.793
				l39.881-37.227l-63.823-106.106"/>
		</g>
		<g>
			<g>
				<path style="fill:#FFFFFF;" d="M1279.606,806.472c25.052-40.988,37.404-90.191,32.119-141.666
					c-12.828-124.94-124.511-215.824-249.45-202.996c-124.94,12.828-215.824,124.511-202.996,249.45
					c12.828,124.94,124.511,215.824,249.45,202.996c34.752-3.568,66.855-14.804,94.839-31.827l105.24,23.602L1279.606,806.472z"/>
			</g>
			<g style="opacity:0.5;">
				<g>
					<path style="fill:#FFFFFF;" d="M1066.743,505.319c116.711-11.983,221.827,66.545,245.628,178.783
						c0.028-8.017-0.317-16.106-1.154-24.261c-12.828-124.94-124.51-215.824-249.45-202.996
						c-124.94,12.828-215.824,124.511-202.996,249.45c0.841,8.19,2.131,16.224,3.797,24.102
						C863.006,615.617,949.993,517.307,1066.743,505.319z"/>
				</g>
			</g>
			<g>
				<circle style="fill:#000072;" cx="960.282" cy="676.014" r="32.491"/>
			</g>
			<g>
				<circle style="fill:#000072;" cx="1086.781" cy="676.014" r="32.491"/>
			</g>
			<g>
				<circle style="fill:#000072;" cx="1213.28" cy="676.014" r="32.491"/>
			</g>
			<g>
				<path style="fill:#000072;" d="M1085.04,935.478c-56.66,0-111.155-19.289-155.703-55.542
					c-51.257-41.714-83.206-100.891-89.954-166.631c-6.75-65.742,12.503-130.178,54.216-181.438
					c41.714-51.257,100.891-83.206,166.633-89.954c65.759-6.75,130.176,12.502,181.436,54.216
					c51.26,41.714,83.205,100.891,89.956,166.633c5.269,51.313-5.229,101.724-30.391,146.375l26.77,91.265
					c1.995,6.797,0.244,14.141-4.599,19.309c-4.841,5.166-12.043,7.385-18.972,5.84l-97.554-21.878
					c-29.636,16.726-61.924,26.97-96.106,30.481C1102.166,935.038,1093.577,935.478,1085.04,935.478z M1085.892,480.6
					c-7.158,0-14.353,0.369-21.572,1.108c-55.112,5.659-104.722,32.439-139.69,75.41c-34.968,42.971-51.111,96.987-45.452,152.1
					c5.659,55.112,32.439,104.719,75.41,139.69c42.969,34.968,96.987,51.091,152.097,45.452
					c30.962-3.181,60.061-12.944,86.487-29.019c4.426-2.695,9.722-3.562,14.773-2.429l72.114,16.174l-19.646-66.985
					c-1.587-5.415-0.815-11.248,2.126-16.062c23.833-38.992,33.962-83.667,29.29-129.189
					c-5.659-55.112-32.441-104.722-75.413-139.69C1179.075,496.772,1133.387,480.6,1085.892,480.6z"/>
			</g>
			<g style="opacity:0.3;">
				<path style="fill:#000072;" d="M1280.883,804.288c-62.289,52.686-148.101,75.758-233.316,54.549
					c-94.504-23.521-164.135-95.484-189.179-182.824c-0.599,11.581-0.33,23.352,0.891,35.247
					C872.107,836.2,983.79,927.084,1108.73,914.256c34.752-3.568,66.855-14.804,94.839-31.827l105.24,23.602l-29.202-99.56
					C1280.046,805.753,1280.451,805.012,1280.883,804.288z"/>
			</g>
		</g>
		<defs>
			
				<filter id="Adobe_OpacityMaskFilter_00000127035552927730461300000008580344682129437099_" filterUnits="userSpaceOnUse" x="1510.445" y="861.133" width="739.571" height="739.571">
				<feFlood  style="flood-color:white;flood-opacity:1" result="back"/>
				<feBlend  in="SourceGraphic" in2="back" mode="normal"/>
			</filter>
		</defs>
		
			<mask maskUnits="userSpaceOnUse" x="1510.445" y="861.133" width="739.571" height="739.571" id="SVGID_00000024680501439765832230000014679251593353270693_">
			<g style="filter:url(#Adobe_OpacityMaskFilter_00000127035552927730461300000008580344682129437099_);">
				<defs>
					
						<filter id="Adobe_OpacityMaskFilter_00000064332288901835886130000003034610440071109265_" filterUnits="userSpaceOnUse" x="1510.445" y="861.133" width="739.571" height="739.571">
						<feFlood  style="flood-color:white;flood-opacity:1" result="back"/>
						<feBlend  in="SourceGraphic" in2="back" mode="normal"/>
					</filter>
				</defs>
				
					<mask maskUnits="userSpaceOnUse" x="1510.445" y="861.133" width="739.571" height="739.571" id="SVGID_00000024680501439765832230000014679251593353270693_">
					<g style="filter:url(#Adobe_OpacityMaskFilter_00000064332288901835886130000003034610440071109265_);">
					</g>
				</mask>
				
					<radialGradient id="SVGID_00000013171986711130973260000009215589886272754094_" cx="1875.1461" cy="1228.1803" r="303.4827" gradientUnits="userSpaceOnUse">
					<stop  offset="0" style="stop-color:#FFFFFF"/>
					<stop  offset="0.1026" style="stop-color:#FAFAFA"/>
					<stop  offset="0.2263" style="stop-color:#EBEBEB"/>
					<stop  offset="0.3608" style="stop-color:#D3D3D3"/>
					<stop  offset="0.5031" style="stop-color:#B1B1B1"/>
					<stop  offset="0.6516" style="stop-color:#858585"/>
					<stop  offset="0.8051" style="stop-color:#4F4F4F"/>
					<stop  offset="0.9601" style="stop-color:#111111"/>
					<stop  offset="1" style="stop-color:#000000"/>
				</radialGradient>
				
					<circle style="mask:url(#SVGID_00000024680501439765832230000014679251593353270693_);fill:url(#SVGID_00000013171986711130973260000009215589886272754094_);" cx="1880.231" cy="1230.918" r="369.785"/>
			</g>
		</mask>
		
			<radialGradient id="SVGID_00000046298414488180774200000001642360543844919701_" cx="1875.1461" cy="1228.1803" r="303.4827" gradientUnits="userSpaceOnUse">
			<stop  offset="0" style="stop-color:#299ADF"/>
			<stop  offset="1" style="stop-color:#299ADF"/>
		</radialGradient>
		
			<circle style="opacity:0.68;fill:url(#SVGID_00000046298414488180774200000001642360543844919701_);" cx="1880.231" cy="1230.918" r="369.785"/>
		<defs>
			
				<filter id="Adobe_OpacityMaskFilter_00000056413675177782614040000008953166471485406337_" filterUnits="userSpaceOnUse" x="2074.444" y="1053.136" width="739.571" height="739.571">
				<feFlood  style="flood-color:white;flood-opacity:1" result="back"/>
				<feBlend  in="SourceGraphic" in2="back" mode="normal"/>
			</filter>
		</defs>
		
			<mask maskUnits="userSpaceOnUse" x="2074.444" y="1053.136" width="739.571" height="739.571" id="SVGID_00000077317915702556630290000015485462137331712954_">
			<g style="filter:url(#Adobe_OpacityMaskFilter_00000056413675177782614040000008953166471485406337_);">
				<defs>
					
						<filter id="Adobe_OpacityMaskFilter_00000115481572474683255540000009252995655920297103_" filterUnits="userSpaceOnUse" x="2074.444" y="1053.136" width="739.571" height="739.571">
						<feFlood  style="flood-color:white;flood-opacity:1" result="back"/>
						<feBlend  in="SourceGraphic" in2="back" mode="normal"/>
					</filter>
				</defs>
				
					<mask maskUnits="userSpaceOnUse" x="2074.444" y="1053.136" width="739.571" height="739.571" id="SVGID_00000077317915702556630290000015485462137331712954_">
					<g style="filter:url(#Adobe_OpacityMaskFilter_00000115481572474683255540000009252995655920297103_);">
					</g>
				</mask>
				
					<radialGradient id="SVGID_00000000921019757473944540000000765368799680936115_" cx="2439.1443" cy="1420.1836" r="303.4827" gradientUnits="userSpaceOnUse">
					<stop  offset="0" style="stop-color:#FFFFFF"/>
					<stop  offset="0.1026" style="stop-color:#FAFAFA"/>
					<stop  offset="0.2263" style="stop-color:#EBEBEB"/>
					<stop  offset="0.3608" style="stop-color:#D3D3D3"/>
					<stop  offset="0.5031" style="stop-color:#B1B1B1"/>
					<stop  offset="0.6516" style="stop-color:#858585"/>
					<stop  offset="0.8051" style="stop-color:#4F4F4F"/>
					<stop  offset="0.9601" style="stop-color:#111111"/>
					<stop  offset="1" style="stop-color:#000000"/>
				</radialGradient>
				
					<circle style="mask:url(#SVGID_00000077317915702556630290000015485462137331712954_);fill:url(#SVGID_00000000921019757473944540000000765368799680936115_);" cx="2444.229" cy="1422.922" r="369.785"/>
			</g>
		</mask>
		
			<radialGradient id="SVGID_00000152224722163634562590000000039288423865134474_" cx="2439.1443" cy="1420.1836" r="303.4827" gradientUnits="userSpaceOnUse">
			<stop  offset="0" style="stop-color:#299ADF"/>
			<stop  offset="1" style="stop-color:#299ADF"/>
		</radialGradient>
		
			<circle style="opacity:0.68;fill:url(#SVGID_00000152224722163634562590000000039288423865134474_);" cx="2444.229" cy="1422.922" r="369.785"/>
	</g>
</g>
</svg>
